<svg xmlns="http://www.w3.org/2000/svg" viewBox="0 0 1053.24 265.33"><defs><style>.cls-1,.cls-3{fill:#231815;}.cls-1,.cls-2{stroke:#231815;stroke-miterlimit:10;stroke-width:2px;}.cls-2{fill:none;}.cls-4{fill:#fff;}</style></defs><g id="bg"><rect class="cls-1" x="41.89" y="59.51" width="630.13" height="107.8"/><line class="cls-1" x1="41.89" y1="179.44" x2="1031.89" y2="179.44"/><line class="cls-2" x1="41.89" y1="204.81" x2="41.89" y2="179.44"/><line class="cls-2" x1="672.02" y1="204.81" x2="672.02" y2="179.44"/><line class="cls-2" x1="824.25" y1="204.81" x2="824.25" y2="179.44"/><rect class="cls-1" x="824.25" y="59.51" width="207.64" height="107.8"/></g><g id="moji"><path class="cls-3" d="M24.32,229H22.55v-3.24H17.41v-1.23l4.81-7.8h2.1v7.59h1.54v1.44H24.32Zm-5.13-4.68h3.36v-3.68c0-.7,0-1.44.08-2.14h-.07c-.37.79-.68,1.39-1,2l-2.35,3.75Z"/><path class="cls-3" d="M40.09,216v12.37c0,1.86-.8,2.09-4.5,2a6.47,6.47,0,0,0-.65-1.61c.72,0,1.43,0,2,0,1.42,0,1.52,0,1.52-.51v-3H31A9,9,0,0,1,28,230.42a6,6,0,0,0-1.16-1.14c2.77-2.22,3-5.5,3-8.1V216Zm-8.66,5.39a20.82,20.82,0,0,1-.14,2.42h7.17v-2.42Zm7-3.89h-7v2.41h7Z"/><path class="cls-3" d="M46.38,229V218.41h0l-2.07,1.14-.42-1.39,2.77-1.48h1.6V229Z"/><path class="cls-3" d="M53.24,216.14H64.09v14H62.45v-1H54.82v1.08H53.24Zm9.21,1.56H54.82v4.1h7.63Zm-7.63,9.82h7.63v-4.19H54.82Z"/><path class="cls-4" d="M298.75,102.13v1.76h-6.87v4.23H290v-4.23h-8.86v-1.76h3.12V97H290V94.25h-4.54A17.91,17.91,0,0,1,282.53,98a12.17,12.17,0,0,0-1.48-1.22,16.52,16.52,0,0,0,4.29-6.66l2.22.69a.42.42,0,0,1-.48.21c-.19.49-.42,1-.65,1.47h11.33v1.76h-5.88V97h5.44v1.7h-5.44v3.44Zm-12.66,0H290V98.69h-3.92Z"/><path class="cls-4" d="M309,97.77h-5.4v10.35h-1.8V91H309Zm-1.72-5.43h-3.68v1.35h3.68Zm-3.68,4.09h3.68V95h-3.68ZM317.94,91v14.87c0,2.12-.91,2.25-4.3,2.25a7.39,7.39,0,0,0-.58-1.78H307.8v1h-1.66V99.11h7.33v7.16c.49,0,.95,0,1.36,0,1.28,0,1.3,0,1.3-.46v-8h-5.55V91Zm-6.18,9.51h-4V102h4Zm-4,4.46h4v-1.61h-4Zm8.33-12.61h-3.81v1.35h3.81Zm-3.81,4.13h3.81V95h-3.81Z"/><path class="cls-4" d="M331.34,95a21.38,21.38,0,0,1-3.5.7c0,1.06,0,2.17,0,3.12a13.72,13.72,0,0,1,4-.76c3.17,0,5.41,1.68,5.41,4.57a4.3,4.3,0,0,1-4.69,4.65,4.5,4.5,0,0,1-3.65-1.74,14.41,14.41,0,0,0,1-1.44,3.38,3.38,0,0,0,2.73,1.42,2.63,2.63,0,0,0,2.72-2.89c0-1.68-1.24-2.93-3.52-2.93a13.1,13.1,0,0,0-3.94.77c0,1.45,0,3.52,0,4a3,3,0,0,1-3.28,3.15,3.11,3.11,0,0,1-3.38-3.1,4.89,4.89,0,0,1,2.35-3.67A12.32,12.32,0,0,1,326,99.49V95.86c-1.32.09-2.79.11-4.4.11l0-1.84c1.63,0,3.1,0,4.42-.07V90.63l2.51.1c0,.23-.21.4-.52.44-.06.73-.08,1.74-.1,2.7a14.4,14.4,0,0,0,3.18-.75ZM326,101.23c-.59.29-3.08,1.55-3.08,3.26a1.55,1.55,0,1,0,3.1-.1C326,103.91,326,102.55,326,101.23Zm10.81-4.17a15.64,15.64,0,0,0-4.34-2.66l.94-1.57a16.39,16.39,0,0,1,4.51,2.63Z"/><path class="cls-4" d="M348.08,105.9a.51.51,0,0,1-.48.12,33.55,33.55,0,0,1-5.87,2.14,12.59,12.59,0,0,0-1.25-1.28,23.06,23.06,0,0,0,5.73-1.91Zm-6.33-14.85h15.13v4.52H341.75ZM343,96.53h12.74v8.36H343Zm.44-4.1v1.76h2.77V92.43Zm1.32,5.3v1.21h9.17V97.73Zm0,2.36v1.2h9.17v-1.2Zm0,2.35v1.24h9.17v-1.24Zm3-10v1.76h2.86V92.43Zm8.44,15.71a41.36,41.36,0,0,0-5.57-2.2l1.44-1a62.49,62.49,0,0,1,6.07,2.22Zm-4-15.71v1.76h2.93V92.43Z"/><path class="cls-4" d="M363.88,92.83c0,.18-.24.31-.51.33a30.7,30.7,0,0,0-.42,5.13c0,5.2,1.7,6.33,2.68,6.33.7,0,1.6-2,2.14-3.79a8.9,8.9,0,0,0,1.57,1.17c-1.09,3.41-2.32,4.67-3.81,4.67-2.7,0-4.25-3.35-4.46-6.7-.06-.73-.07-1.53-.07-2.37a44.53,44.53,0,0,1,.3-5.26Zm11.66,9.07a9.34,9.34,0,0,0-4.67-7l1.2-1.43a10.59,10.59,0,0,1,5.46,7.82Z"/><path class="cls-4" d="M389,105.35h8.4v1.83H379.94v-1.83h7.12V90.46l2.41.14c0,.17-.16.28-.46.34v5.32h7.06v1.82H389Z"/><path class="cls-4" d="M403.65,91.82c0,.19-.25.32-.52.36a40.54,40.54,0,0,0-1,7.62,23.29,23.29,0,0,0,.16,2.85c.38-.78,1.16-2.35,1.7-3.35l1.15,1.38a31.83,31.83,0,0,0-2,3.67,2.27,2.27,0,0,0-.19.86,3.31,3.31,0,0,0,.11.77l-1.87.34a21.52,21.52,0,0,1-.88-6.46,50.72,50.72,0,0,1,.9-8.4ZM405.88,96c1.31,0,3.54,0,4.83-.13-.1-2.22-.25-4.69-.31-5.17l2.58.1a.62.62,0,0,1-.53.49c0,1,.11,2.83.17,4.46a20.87,20.87,0,0,0,3.5-.55l.17,1.89a32.3,32.3,0,0,1-3.61.46c0,.48,0,1,0,1.47,0,4-1,6.87-4.59,8.75a10.49,10.49,0,0,0-1.51-1.32c3.43-1.69,4.17-4,4.17-7.25l0-1.55c-1.22.07-3.25.13-4.84.13Zm7.72-4.48a11.61,11.61,0,0,1,2.16,2.59l-1,.63a11.21,11.21,0,0,0-2.05-2.55Zm2-1.51a11.71,11.71,0,0,1,2.16,2.57l-1,.65a11.07,11.07,0,0,0-2.08-2.57Z"/><path class="cls-4" d="M426.26,102.21v4.63a11,11,0,0,0,3.56-2.24l1.61.94a.58.58,0,0,1-.37.15,11.92,11.92,0,0,1-3.8,2.39,9.77,9.77,0,0,0-1.17-1.14h-4.23v.86h-1.55v-5.23l-.63.29a5.67,5.67,0,0,0-1-1.3,11.46,11.46,0,0,0,3.75-2.34c-.53-.4-1.09-.78-1.6-1.14-.35.3-.69.57-1,.82a8.19,8.19,0,0,0-1.09-1,9.88,9.88,0,0,0,3.5-4.23l1.78.55c0,.14-.19.21-.42.19l-.34.67h2.22l.26,0c.48.22.79.36,1.08.47a.42.42,0,0,1-.2.23A11.36,11.36,0,0,1,424.77,99c1.11.8,2.12,1.58,2.79,2.18l-1.05,1.26Zm-5.57-8.78V95H419.2V92h3.22V90.19l2.14.14c0,.15-.14.25-.44.28V92h3.25V95h-1.53v-1.6Zm5,8.32c-.58-.5-1.27-1-2-1.59a14.76,14.76,0,0,1-2,1.59Zm-1,3.77v-2.35h-2.83v2.35Zm-2.26-9.18c-.17.23-.34.44-.53.67.52.34,1.07.72,1.62,1.1a9.26,9.26,0,0,0,1.15-1.77Zm5.76-2.07h2.53c.11-.54.23-1.13.32-1.67H427.5V91h9.38V92.6h-4c-.13.5-.29,1.11-.48,1.67h3.72v10.14h-7.93Zm6.2,3V95.67h-4.55v1.56Zm0,2.87V98.54h-4.55v1.56Zm0,2.91v-1.58h-4.55V103Zm1.36,5.17a19.58,19.58,0,0,0-3.16-2.6l1.36-.84a23.27,23.27,0,0,1,3.24,2.48Z"/><path class="cls-4" d="M327.88,122.89v1.46h-7.79v-1.46Zm-.81,7.9v5.74h-4.51v.83H321v-6.57ZM321,127v-1.42h6.12V127Zm0,2.6v-1.42h6.12v1.42Zm6.12-9.24v1.41h-6v-1.41Zm-1.68,11.92h-2.89v2.81h2.89Zm12.76-6V128H334v9.55h-1.84V128h-4.34v-1.8h4.34v-6.51l2.3.14c0,.17-.16.29-.46.32v6Z"/><path class="cls-4" d="M357.84,121v1.47h-3.73a8.73,8.73,0,0,1,.76,1.07l-1.16.54h1.87v7.53h-3.31v0l1.46.08c0,.15-.16.27-.46.31v.86h4.4v1.47h-4.4v3.2h-1.86v-3.2h-4.53c-.39,1.3-1.65,2.57-5.06,3.45a6.15,6.15,0,0,0-1.13-1.34c2.61-.54,3.74-1.34,4.21-2.11h-4.57v-1.47h4.88v-1.27h-2.6v-7.53h1.95a11.17,11.17,0,0,0-.86-1.61H343a12.93,12.93,0,0,1-1.74,1.95,10.23,10.23,0,0,0-1.36-.94,11.4,11.4,0,0,0,2.87-4l2,.63c-.07.18-.25.21-.44.18L344,121h4.74v1.37a9.42,9.42,0,0,0,1.78-2.85l2,.58a.44.44,0,0,1-.44.21l-.34.69Zm-4.06,5.22v-1h-9.45v1Zm0,2.12v-1h-9.45v1Zm0,2.13v-1h-9.45v1ZM349,124.12a9.91,9.91,0,0,0-1.38-.75,9.27,9.27,0,0,0,.94-.86h-3.05a7.24,7.24,0,0,1,.64,1.15l-1.27.46Zm2.37,8.8v-1.27H346v0l1.51.06c0,.17-.14.29-.46.33v.86Zm-.69-10.41a10.08,10.08,0,0,1-1.49,1.61h4.06a13.52,13.52,0,0,0-1.21-1.61Z"/><path class="cls-4" d="M369.55,131.33v1.59h-9.66v-1.59h1.81v-7.62h-1.58v-1.58h1.58v-2.24l2.09.13c0,.15-.15.25-.44.31v1.8h3v-2.24l2.11.13c0,.15-.14.27-.42.31v1.8h1.37v1.58h-1.37v7.62Zm-5.11,2.56c-.06.14-.19.19-.44.18a13,13,0,0,1-2.72,3.54,8.29,8.29,0,0,0-1.36-1,10,10,0,0,0,2.53-3.35Zm1.95-10.18h-3v1.52h3Zm-3,2.93v1.57h3v-1.57Zm0,3v1.7h3v-1.7Zm13.89-9v14.9c0,1.8-.69,2.14-3.79,2.11a6.5,6.5,0,0,0-.53-1.75c.55,0,1.13,0,1.57,0,.9,0,1,0,1-.4v-4.4h-3.65a13.33,13.33,0,0,1-2.2,6.58,6.79,6.79,0,0,0-1.42-1.05l.15-.21-.8.46a16.16,16.16,0,0,0-2-2.95l1.4-.76a21.46,21.46,0,0,1,1.89,2.48c1.32-2.43,1.46-5.53,1.46-8v-7Zm-5.24,7c0,.57,0,1.18,0,1.81h3.52v-2.81H372Zm3.48-5.4H372V125h3.48Z"/><path class="cls-4" d="M388,127.25h-5.4v10.36h-1.8V120.46H388Zm-1.73-5.43h-3.67v1.36h3.67Zm-3.67,4.09h3.67v-1.45h-3.67Zm14.31-5.45v14.87c0,2.12-.92,2.26-4.3,2.26a7.12,7.12,0,0,0-.58-1.78h-5.26v1h-1.66v-8.19h7.32v7.16c.5,0,1,0,1.36,0,1.29,0,1.3,0,1.3-.46v-8h-5.54v-6.83ZM390.69,130h-4v1.51h4Zm-4,4.46h4v-1.61h-4Zm8.32-12.61h-3.8v1.36h3.8Zm-3.8,4.13h3.8v-1.49h-3.8Z"/><path class="cls-4" d="M902.71,101.87c.63.42,2.54,1.87,3,2.27l-1,1.32c-.4-.44-1.25-1.24-2-1.91v4.55H901v-4.4a13.25,13.25,0,0,1-2.72,3.08A7,7,0,0,0,897,105.5a12.87,12.87,0,0,0,3.64-4h-3.2V99.91H901v-1.7h-3.71V96.7h2.12a11.14,11.14,0,0,0-.75-2.57l1.27-.36h-2.26V92.26H901V90.19l2.2.14c0,.15-.14.27-.44.3v1.63h3.4v1.51h-2.2l1.57.44c0,.14-.19.19-.44.21-.23.65-.63,1.57-1,2.28h2.45v1.51h-3.47a.69.69,0,0,1-.34.13v1.57h3.52v1.55h-3.52Zm-.17-5.29a21.55,21.55,0,0,0,1-2.81H900a10.24,10.24,0,0,1,.84,2.8l-.42.13h2.43Zm12.57.08v1.68h-2.05v9.78H911.3V98.34h-2.43c0,2.21-.06,6.82-3.06,9.82a4.34,4.34,0,0,0-1.3-1.26c2.37-2.37,2.62-5.63,2.62-8.29V92l1,.31a22.39,22.39,0,0,0,5-2.07l1.74,1.32a.48.48,0,0,1-.47.1,31.87,31.87,0,0,1-5.59,2v3Z"/><path class="cls-4" d="M932,97a.6.6,0,0,1-.33.24c-1.64,5.82-4.7,8.63-10.44,10.24a7.86,7.86,0,0,0-1.15-1.53c5-1.22,8.21-3.88,9.26-7.77H917.27V96.41h12.91l.23-.15Zm-2-3.72H919.14V91.53h10.91Z"/><path class="cls-4" d="M935.48,92.16a23.76,23.76,0,0,1,5.65,2.55l-1,1.72a25.9,25.9,0,0,0-5.54-2.64Zm-.36,13.09c6.6-2,11.08-5.81,13.34-11.1a11.68,11.68,0,0,0,1.76,1.11c-2.38,5.23-7,9.32-13.42,11.52a.58.58,0,0,1-.3.46Z"/><path class="cls-4" d="M966.14,94.56a1,1,0,0,1-.35.32c-2.08,6.22-5.14,10.1-10.39,12.74a7,7,0,0,0-1.39-1.47,16.94,16.94,0,0,0,9.33-10.58h-6.2a19.59,19.59,0,0,1-4.17,4.55,9.4,9.4,0,0,0-1.55-1.22,19.45,19.45,0,0,0,6.07-8.21l2.43.61c-.06.19-.31.29-.58.29-.34.77-.74,1.49-1.12,2.18h6.08l.29-.11Z"/><path class="cls-4" d="M917,127.25v6.24c1.3,2.11,3.85,2.11,7.23,2.11,2.2,0,4.85-.06,6.53-.19a8.75,8.75,0,0,0-.58,1.77c-1.43.06-3.61.1-5.58.1-4.17,0-6.59,0-8.36-2.28-.83.81-1.67,1.59-2.38,2.2a.36.36,0,0,1-.21.37l-.94-1.94a29.49,29.49,0,0,0,2.55-2v-4.69h-2.35v-1.69Zm-2.56-7.08a14.48,14.48,0,0,1,3.1,3.12l-1.48,1.13a14.53,14.53,0,0,0-3-3.23Zm6.69,4.63a8.79,8.79,0,0,0-.76-1.89l.69-.17h-3.24v-1.42h5.34v-1.66l2.22.13c0,.15-.15.27-.46.31v1.22h5.53v1.42H927.6l.63.19c0,.13-.19.19-.42.19-.23.48-.55,1.13-.88,1.68h2.85v8c0,1.51-.69,1.63-2.77,1.63a6.55,6.55,0,0,0-.46-1.3h-3.71v.71h-1.25v-4.23h1.86v-1.11h-2.62v-1.07h2.62V126.3l1.74.11c0,.14-.13.23-.38.27v.77h2.71v1.07h-2.71v1.11h1.93v3.44c.5,0,.94,0,1.11,0s.25-.08.25-.27v-6.6h-7.85v8.27h-1.64V124.8Zm4.37,0-.12,0a15.93,15.93,0,0,0,.82-2h-4.28a7.18,7.18,0,0,1,.82,2l-.31.07Zm0,7.3v-1.42h-2.66v1.42Z"/><path class="cls-4" d="M949.24,121v14.31c0,2-.86,2.22-4.61,2.18a7,7,0,0,0-.61-1.76c.74,0,1.51,0,2.08,0,1.27,0,1.32,0,1.32-.48v-3.5h-4.8v5.57h-1.78v-5.57H936.4a11.25,11.25,0,0,1-2.45,5.93,5.61,5.61,0,0,0-1.41-1.2c2.12-2.38,2.31-5.82,2.31-8.56v-7Zm-12.59,7c0,.65,0,1.36-.08,2.09h4.27v-2.82h-4.19Zm4.19-5.24h-4.19v2.81h4.19Zm6.58,2.81v-2.81h-4.8v2.81Zm-4.8,4.52h4.8v-2.82h-4.8Z"/><path class="cls-3" d="M632.71,221.37c1.12-.36,2.82-1,4.48-1.64l.24,1.1c-1.4.64-2.85,1.29-3.81,1.68a.33.33,0,0,1-.18.3Zm12.11,4.37a.43.43,0,0,1-.41.18,22.06,22.06,0,0,1-1.45,2.75h4.71V230h-15v-1.37h4.35a12.71,12.71,0,0,0-1-2.9l1.27-.39h-3.26V224h5.35v-1.47l1.9.11c0,.15-.13.23-.39.28V224h5.38v1.35h-2.77Zm-5.45-4.08c0,1.42-.58,1.55-2.75,1.55a4.61,4.61,0,0,0-.43-1.35l1.06,0c.64,0,.71,0,.71-.24v-4.53h-4.89v-1.31h6.3Zm-3.92-1.77a9.79,9.79,0,0,0-1.68-2.07l1-.67a9.81,9.81,0,0,1,1.74,2Zm6.09,8.52a19.77,19.77,0,0,0,1.35-3h-5.38a13.08,13.08,0,0,1,1.11,3l-.88.29h4.57Zm-1.45-7.23c1.12-.38,2.85-1.06,4.51-1.72l.26,1.13c-1.4.65-2.85,1.34-3.79,1.73a.45.45,0,0,1-.18.31Zm2.62-1.39a10.22,10.22,0,0,0-1.81-2l1-.65h-1.5v-1.31h6.47v5.84c0,1.43-.57,1.56-2.82,1.56a5.24,5.24,0,0,0-.41-1.35l1.1,0c.65,0,.71,0,.71-.24v-4.53H642a10.82,10.82,0,0,1,1.78,1.84Z"/><path class="cls-3" d="M651.64,217.64a6.5,6.5,0,0,1,3.88-1.21c2.57,0,3.91,1.4,3.91,3a3,3,0,0,1-2.51,3v0a3.06,3.06,0,0,1,3,3c0,1.88-1.6,3.64-4.84,3.64a6.29,6.29,0,0,1-3.82-1.14l.59-1.52a5.46,5.46,0,0,0,3.16,1c1.92,0,2.76-1.09,2.76-2.1,0-1.6-1.6-2.12-3.17-2.12h-1.23v-1.5h1.23c1.32,0,2.77-.67,2.77-2,0-.95-.73-1.75-2.2-1.75a4.87,4.87,0,0,0-2.91,1.05Z"/><path class="cls-3" d="M675.84,216v12.37c0,1.86-.8,2.09-4.5,2a6.11,6.11,0,0,0-.65-1.61c.72,0,1.44,0,2,0,1.41,0,1.51,0,1.51-.51v-3h-7.43a9,9,0,0,1-3,5.15,5.92,5.92,0,0,0-1.15-1.14c2.77-2.22,3-5.5,3-8.1V216Zm-8.65,5.39a20.93,20.93,0,0,1-.15,2.42h7.17v-2.42Zm7-3.89h-7v2.41h7Z"/><path class="cls-3" d="M683.89,222.33a3.09,3.09,0,0,1,2.57,3.12c0,2-1.53,3.68-4.32,3.68a5.85,5.85,0,0,1-3-.77l.49-1.45a4.77,4.77,0,0,0,2.43.7,2.21,2.21,0,0,0,2.46-2.23c0-1.58-1.33-2.31-2.79-2.31h-.83v-1.36h.8c1.06,0,2.45-.63,2.45-2a1.69,1.69,0,0,0-1.93-1.73,4.17,4.17,0,0,0-2.18.73l-.47-1.35a5.55,5.55,0,0,1,3.08-.9c2.3,0,3.42,1.39,3.42,3a3.06,3.06,0,0,1-2.18,2.87Z"/><path class="cls-3" d="M691.68,229V218.41h0l-2.07,1.14-.43-1.39,2.77-1.48h1.6V229Z"/><path class="cls-3" d="M698.54,216.14h10.85v14h-1.64v-1h-7.63v1.08h-1.58Zm9.21,1.56h-7.63v4.1h7.63Zm-7.63,9.82h7.63v-4.19h-7.63Z"/><path class="cls-3" d="M787.16,221.37c1.13-.36,2.82-1,4.48-1.64l.25,1.1c-1.4.64-2.85,1.29-3.81,1.68a.33.33,0,0,1-.18.3Zm12.11,4.37c0,.11-.19.18-.41.18a22.06,22.06,0,0,1-1.45,2.75h4.71V230h-15v-1.37h4.35a12.71,12.71,0,0,0-1-2.9l1.27-.39h-3.25V224h5.34v-1.47l1.91.11c0,.15-.13.23-.39.28V224h5.37v1.35H798Zm-5.44-4.08c0,1.42-.59,1.55-2.76,1.55a4.31,4.31,0,0,0-.42-1.35l1.06,0c.63,0,.7,0,.7-.24v-4.53h-4.89v-1.31h6.31Zm-3.93-1.77a9.49,9.49,0,0,0-1.68-2.07l1-.67a9.88,9.88,0,0,1,1.75,2Zm6.1,8.52a20.79,20.79,0,0,0,1.35-3H792a13.08,13.08,0,0,1,1.11,3l-.88.29h4.56Zm-1.46-7.23c1.13-.38,2.86-1.06,4.52-1.72l.26,1.13c-1.4.65-2.85,1.34-3.8,1.73a.42.42,0,0,1-.18.31Zm2.63-1.39a10.9,10.9,0,0,0-1.81-2l.94-.65h-1.49v-1.31h6.47v5.84c0,1.43-.57,1.56-2.82,1.56a5.24,5.24,0,0,0-.41-1.35l1.09,0c.65,0,.72,0,.72-.24v-4.53h-3.38a10.1,10.1,0,0,1,1.78,1.84Z"/><path class="cls-3" d="M810.46,229h-1.78v-3.24h-5.13v-1.23l4.8-7.8h2.11v7.59H812v1.44h-1.53Zm-5.14-4.68h3.36v-3.68c0-.7,0-1.44.08-2.14h-.06c-.38.79-.69,1.39-1,2l-2.35,3.75Z"/><path class="cls-3" d="M826.22,216v12.37c0,1.86-.8,2.09-4.5,2a6.47,6.47,0,0,0-.65-1.61c.72,0,1.43,0,2,0,1.42,0,1.52,0,1.52-.51v-3h-7.43a9,9,0,0,1-3,5.15,6,6,0,0,0-1.16-1.14c2.77-2.22,3-5.5,3-8.1V216Zm-8.65,5.39a20.93,20.93,0,0,1-.15,2.42h7.17v-2.42Zm7-3.89h-7v2.41h7Z"/><path class="cls-3" d="M837.63,218h6V226H842v-.89h-4.37v5.29H836v-5.29h-4.27v1h-1.55v-8H836v-2.9l2,.11c0,.13-.13.23-.41.28Zm-5.86,5.54H836v-4h-4.27Zm5.86,0H842v-4h-4.37Z"/><path class="cls-3" d="M860.31,217.33l.84,0c0,.15,0,.37,0,.54-.23,8-.43,10.74-1.13,11.62-.52.66-1,.86-2.75.86-.52,0-1.11,0-1.68-.05a3.7,3.7,0,0,0-.52-1.56c1.21.09,2.3.09,2.75.09a.83.83,0,0,0,.75-.27c.56-.56.79-3.23,1-9.78H850.4c-.31.62-.65,1.22-1,1.79h6.39v7.32h-5v.91h-1.45v-8.11a15.07,15.07,0,0,1-1.84,2.36,13.54,13.54,0,0,0-1.31-1,17,17,0,0,0,4-7l1.91.57a.38.38,0,0,1-.41.18c-.18.49-.36,1-.57,1.47H860Zm-6,4.64h-3.52v1.62h3.52Zm-3.52,4.63h3.52v-1.74h-3.52Z"/><path class="cls-3" d="M50.36,17.83v7.62C51.93,28,55,28,59.16,28c2.69,0,5.89-.07,8-.24A10.52,10.52,0,0,0,66.41,30c-1.73.07-4.38.11-6.81.11-5.1,0-8,0-10.2-2.78-1.14,1-2.34,1.94-3.32,2.69a.41.41,0,0,1-.28.44l-1.12-2.36a39.89,39.89,0,0,0,3.55-2.48V19.88H45V17.83ZM46.88,9.08A19,19,0,0,1,51,12.82l-1.66,1.59a18.11,18.11,0,0,0-4-3.93ZM54.71,23v3.77H52.63V14.48h6.13c-1.26-.61-2.72-1.24-3.93-1.71l1.43-1.19c.93.33,2,.75,3.08,1.22A17.51,17.51,0,0,0,62,11.18H52.72V9.45h11.4l.32-.11,1.64,1.05a.58.58,0,0,1-.44.23,26,26,0,0,1-4.38,3c.61.3,1.17.58,1.62.84h2.94V24.66c0,1.91-.79,2.13-4.07,2.13A6.17,6.17,0,0,0,61.17,25c.58,0,1.12.05,1.54.05.91,0,1,0,1-.4V23H60.16v3.67h-2V23Zm3.44-6.81H54.71v1.73h3.44Zm-3.44,5.15h3.44v-1.8H54.71Zm9-3.42V16.14H60.16v1.73Zm-3.56,3.42h3.56v-1.8H60.16Z"/><path class="cls-3" d="M88.18,9.71c-.09.16-.28.21-.56.21a25.39,25.39,0,0,1-1.56,2h3.83v5.09H87.72V13.9H71.93v3.15H69.85V12h3.46a17.1,17.1,0,0,0-1.59-2.39l2-.8a15.86,15.86,0,0,1,2,2.9L75,12h3.51V8.56l2.78.14c0,.21-.16.33-.56.4V12H84.3c-.19-.1-.37-.17-.54-.24a19.4,19.4,0,0,0,1.87-3Zm.17,12.79v4.73c0,2.13-1,2.27-4.91,2.27a8,8,0,0,0-.73-1.94c.77,0,1.52,0,2.11,0,1.14,0,1.33,0,1.33-.37V24.49H80.77v6H78.55v-6h-5v5.06H71.39v-7h7.16V20.84H73.63v-5.4H86.1v5.4H81.26a.68.68,0,0,1-.49.19V22.5ZM75.69,17.05v2.16H83.9V17.05Z"/><path class="cls-3" d="M115,23.16v2.15h-8.4v5.17h-2.29V25.31H93.43V23.16h3.81V16.87h7V13.52H98.72a22.07,22.07,0,0,1-3.6,4.59,14.43,14.43,0,0,0-1.81-1.5,20.1,20.1,0,0,0,5.24-8.14l2.72.84a.49.49,0,0,1-.59.26c-.23.61-.51,1.22-.79,1.8h13.85v2.15h-7.19v3.35h6.65V19h-6.65v4.21Zm-15.48,0h4.79V19H99.47Z"/><path class="cls-3" d="M121.45,12.87v4.75c0,3.74-.33,9.28-2.41,12.91a9.36,9.36,0,0,0-1.83-1.24c1.94-3.37,2.11-8.21,2.11-11.67V10.88h8.61V8.56l2.85.17c0,.21-.16.32-.54.39v1.76h8.89v2ZM136,22l1.47.67a.5.5,0,0,1-.28.26,11.48,11.48,0,0,1-4.33,4.42,30.46,30.46,0,0,0,6.53,1.29,9.35,9.35,0,0,0-1.29,1.92,27.88,27.88,0,0,1-7.6-2,31.8,31.8,0,0,1-8.11,2,8.2,8.2,0,0,0-.94-1.84,32.86,32.86,0,0,0,6.85-1.36A12,12,0,0,1,125,24.24l1.14-.43h-3.71V22h13.14Zm-.89-1.31h-9.31V17h-3.51V15.18h3.51V13.27l2.64.16c0,.19-.18.33-.53.4v1.35h5V13.27l2.74.16c0,.19-.17.33-.54.4v1.35H139V17h-3.91Zm-8,3.15a10.68,10.68,0,0,0,3.44,2.58A11.06,11.06,0,0,0,134,23.81ZM132.86,17h-5v2h5Z"/></g></svg>