<?xml version="1.0" encoding="utf-8"?>
<!-- Generator: Adobe Illustrator 26.5.0, SVG Export Plug-In . SVG Version: 6.00 Build 0)  -->
<svg version="1.1" id="レイヤー_1" xmlns="http://www.w3.org/2000/svg" xmlns:xlink="http://www.w3.org/1999/xlink" x="0px"
	 y="0px" viewBox="0 0 374.2 90" style="enable-background:new 0 0 374.2 90;" xml:space="preserve">
<style type="text/css">
	.st0{fill:#FFFFFF;}
	.st1{fill:none;stroke:#000000;stroke-miterlimit:10;}
</style>
<g>
	<polygon points="155.7,34 167.9,34 167.9,58.8 185.4,58.8 185.4,67.4 155.7,67.4 	"/>
	<polygon points="187.3,34 220.1,34 220.1,42.6 199.5,42.6 199.5,46.7 216,46.7 216,54.7 199.5,54.7 199.5,58.8 220.4,58.8 
		220.4,67.4 187.3,67.4 	"/>
	<g>
		<path d="M232.2,50.7c0-7.4,4.8-9.2,7.9-9.2s7.9,1.7,7.9,9.2s-4.8,9.2-7.9,9.2S232.2,58.1,232.2,50.7 M220,50.7
			c0,10.2,8,17.5,20.1,17.5c12,0,20.1-7.3,20.1-17.5c0-10.2-8-17.5-20.1-17.5C228,33.2,220,40.5,220,50.7"/>
		<polygon points="261.9,34 274.3,34 285.8,51.9 285.9,51.9 285.9,34 297.5,34 297.5,67.4 285.6,67.4 273.5,49.1 273.4,49.1 
			273.4,67.4 261.9,67.4 		"/>
		<path d="M77,65.9c0.8,0.9,1.9,1.5,3.2,1.5h72.2l-7.2-6.5l0-20.4c0-1.3-0.6-2.4-1.5-3.2l-2.1-2.1c-0.8-0.9-1.9-1.5-3.3-1.5H77.7
			c-2.4,0-4.3,1.9-4.3,4.3v22.6c0,1.3,0.6,2.5,1.5,3.3L77,65.9z"/>
		<path class="st0" d="M139.2,37.3c0-0.1,0-0.1,0-0.2c-0.1-0.4-0.4-0.6-0.8-0.6l0,0H76.9c-0.4,0-0.8,0.4-0.8,0.8v23.3
			c0,0,0,0.1,0,0.2c0.1,0.4,0.4,0.6,0.8,0.6l0,0h61.5c0.4,0,0.8-0.4,0.8-0.8L139.2,37.3L139.2,37.3z"/>
		<path d="M93,54.2h-4.6l1,0.9c0.1,0.1,0.1,0.2,0.1,0.2c0,0.2-0.1,0.2-0.2,0.2c-0.2,0-0.3,0-0.5-0.1c-2.5,1.4-3.4,1.8-5,2.2
			c-0.5-0.9-1.9-2.1-2.1-2.3c1.3-0.2,2.7-0.5,3.9-1.2h-1.9V46h13.8v8.2h-1.9c0.4,0.2,1.9,0.8,3.8,1.1c-0.2,0.2-1.6,1.7-1.9,2.3
			c-2.2-0.6-3.6-1.3-5.5-2.6L93,54.2z M98.9,45.5H82.3v-5h16.5L98.9,45.5L98.9,45.5z M86.9,42.5h-1.8v1h1.8V42.5z M94.6,47.9h-8v0.6
			h8V47.9L94.6,47.9z M86.6,50.4h8v-0.6h-8V50.4z M86.6,52.3h8v-0.6h-8V52.3z M89.7,43.5h1.8v-1h-1.8V43.5z M94.3,43.5h1.8v-1h-1.8
			V43.5z"/>
		<path d="M130.6,42.5c-1.3,0.8-4.2,4.2-4.6,4.6c0.3-0.1,1.3-0.3,2.3-0.3c2.6,0,5.2,1.6,5.2,5c0,4.1-3.9,5.9-7.2,5.9
			c-2.4,0-4.8-1-4.8-3.2c0-1.9,1.7-3,3.7-3c1.8,0,3.6,1,4,2.8c1.2-0.6,1.2-2.1,1.2-2.2c0-0.4-0.2-2.7-3.1-2.7c-3.2,0-5,1.9-7.6,4.6
			l-2.3-2.2c2.2-1.5,6.4-6,7.6-7.7c-0.6,0.1-2.2,0.3-6,0.6l-0.4-3.1c2.2,0.4,7.1,0.3,10.4-0.9L130.6,42.5z M124.9,53.8
			c-0.6,0-0.8,0.4-0.8,0.7c0,0.7,1.1,1,1.7,1c0.4,0,0.8-0.1,0.9-0.1C126.5,54,125.5,53.8,124.9,53.8"/>
		<path d="M114.5,45.6c-3.2,2.8-4,3.7-4.3,4.2c0.2-0.1,0.2-0.1,0.4-0.1c1,0,1.5,0.7,1.5,1.3c0,0.4-0.3,2.3-0.3,2.6
			c0,0.9,0.5,1.1,1.2,1.1c1.5,0,2.9-0.1,4.2-0.6c-0.1,0.6-0.1,2,0.1,2.9c-1.7,0.3-3.2,0.5-4.5,0.5c-3.4,0-4-1.2-4-2.3
			c0-0.3,0.1-1.8,0.1-2.1c0-0.2,0-0.8-0.5-0.8c-0.6,0-1.8,1.4-4.8,5l-2.4-2.1c0.7-0.6,4.1-3.8,7.4-7.9c-1.3,0.3-3.4,0.8-5.6,1
			l-0.5-3c0.6,0,0.9,0,1.3,0c3.1,0,7-0.8,8.7-1.7L114.5,45.6z M105.8,40.3c1.6,0.5,3.3,0.6,5,0.6c0.7,0,1,0,1.3-0.1
			c-0.2,0.7-0.3,1.7-0.3,2.7c-0.2,0-0.5,0-0.9,0c-2.8,0-4.6-0.4-5.4-0.5L105.8,40.3z"/>
		<polygon points="97.6,29 97.6,21.9 99,21.9 99,27.8 101.1,27.8 101.1,29 		"/>
		<path d="M103.4,21.9v4.9c0,0.7,0.3,1,0.9,1s1-0.4,1-1v-4.9h1.3v4.9c0,1.5-0.9,2.2-2.3,2.2c-1.4,0-2.3-0.6-2.3-2.2v-4.9H103.4z"/>
		<polygon points="109.8,24 110.8,21.9 112.2,21.9 110.5,25.2 112.4,29 111,29 109.8,26.5 108.6,29 107.2,29 109.1,25.2 107.3,21.9 
			108.8,21.9 		"/>
		<path d="M114.5,21.9v4.9c0,0.7,0.3,1,0.9,1s1-0.4,1-1v-4.9h1.3v4.9c0,1.5-0.9,2.2-2.3,2.2s-2.3-0.6-2.3-2.2v-4.9H114.5z"/>
		<path d="M122,29l-1.2-2.9h-0.6V29h-1.3v-7h1.9c1.6,0,2.4,0.8,2.4,2.1c0,0.9-0.3,1.5-1.1,1.8l1.3,3.1L122,29L122,29z M120.2,25h0.7
			c0.6,0,1-0.3,1-1c0-0.7-0.4-1-1-1h-0.7V25z"/>
		<polygon points="125.9,24.8 127,21.9 128.4,21.9 126.5,26.1 126.5,29 125.2,29 125.2,26.1 123.2,21.9 124.7,21.9 		"/>
		<polygon points="131.9,29 131.9,21.9 133.3,21.9 133.3,27.8 135.4,27.8 135.4,29 		"/>
		<rect x="136.3" y="21.9" width="1.3" height="7"/>
		<polygon points="138.9,29 138.9,21.9 142.5,21.9 142.5,23.1 140.3,23.1 140.3,24.7 142,24.7 142,25.9 140.3,25.9 140.3,29 		"/>
		<polygon points="143,29 143,21.9 146.7,21.9 146.7,23.1 144.4,23.1 144.4,24.7 146.2,24.7 146.2,25.9 144.4,25.9 144.4,27.8 
			146.8,27.8 146.8,29 		"/>
		<path d="M153.6,23.9c-0.2-0.7-0.5-0.9-1-0.9c-0.5,0-0.7,0.3-0.7,0.8c0,1.1,3,1.1,3,3.4c0,1.2-0.8,2-2.2,2c-1.1,0-1.9-0.6-2.3-2
			l1.3-0.3c0.2,0.8,0.6,1.1,1.1,1.1c0.5,0,0.8-0.3,0.8-0.8c0-1.3-3-1.3-3-3.3c0-1.2,0.7-2,2.1-2c1.2,0,1.9,0.7,2.2,1.7L153.6,23.9z"
			/>
		<polygon points="159.8,21.9 159.8,23.1 158.2,23.1 158.2,29 156.9,29 156.9,23.1 155.3,23.1 155.3,21.9 		"/>
		<polygon points="162.8,24.8 164,21.9 165.4,21.9 163.5,26.1 163.5,29 162.1,29 162.1,26.1 160.2,21.9 161.6,21.9 		"/>
		<polygon points="166.1,29 166.1,21.9 167.4,21.9 167.4,27.8 169.6,27.8 169.6,29 		"/>
		<polygon points="170.3,29 170.3,21.9 173.9,21.9 173.9,23.1 171.6,23.1 171.6,24.7 173.4,24.7 173.4,25.9 171.6,25.9 171.6,27.8 
			174,27.8 174,29 		"/>
		<path d="M177.7,24.2c0-1.7,0.9-2.4,2.2-2.4c1.3,0,2.2,0.6,2.2,2.4v2.5c0,1.7-0.9,2.4-2.2,2.4c-1.3,0-2.2-0.6-2.2-2.4V24.2z
			 M179.1,26.9c0,0.8,0.3,1,0.9,1c0.5,0,0.9-0.2,0.9-1V24c0-0.8-0.3-1-0.9-1c-0.5,0-0.9,0.2-0.9,1V26.9z"/>
		<polygon points="183.2,29 183.2,21.9 184.6,21.9 186.5,26.1 186.5,26.1 186.5,21.9 187.7,21.9 187.7,29 186.5,29 184.4,24.4 
			184.4,24.4 184.4,29 		"/>
		<polygon points="188.9,29 188.9,21.9 190.3,21.9 190.3,27.8 192.4,27.8 192.4,29 		"/>
		<rect x="193.2" y="21.9" width="1.3" height="7"/>
		<polygon points="195.9,29 195.9,21.9 197.3,21.9 199.2,26.1 199.2,26.1 199.2,21.9 200.4,21.9 200.4,29 199.2,29 197.1,24.4 
			197.1,24.4 197.1,29 		"/>
		<polygon points="201.7,29 201.7,21.9 205.4,21.9 205.4,23.1 203.1,23.1 203.1,24.7 204.9,24.7 204.9,25.9 203.1,25.9 203.1,27.8 
			205.5,27.8 205.5,29 		"/>
		<path d="M212.3,23.9c-0.2-0.7-0.5-0.9-1-0.9c-0.5,0-0.7,0.3-0.7,0.8c0,1.1,3,1.1,3,3.4c0,1.2-0.8,2-2.2,2c-1.1,0-1.9-0.6-2.3-2
			l1.3-0.3c0.2,0.8,0.6,1.1,1.1,1.1c0.5,0,0.8-0.3,0.8-0.8c0-1.3-3-1.3-3-3.3c0-1.2,0.7-2,2.1-2c1.2,0,1.9,0.7,2.2,1.7L212.3,23.9z"
			/>
		<polygon points="218.3,21.9 218.3,23.1 216.8,23.1 216.8,29 215.4,29 215.4,23.1 213.8,23.1 213.8,21.9 		"/>
		<path d="M218.9,24.2c0-1.7,0.9-2.4,2.2-2.4c1.3,0,2.2,0.6,2.2,2.4v2.5c0,1.7-0.9,2.4-2.2,2.4c-1.3,0-2.2-0.6-2.2-2.4V24.2z
			 M220.2,26.9c0,0.8,0.3,1,0.9,1s0.9-0.2,0.9-1V24c0-0.8-0.3-1-0.9-1s-0.9,0.2-0.9,1V26.9z"/>
		<path d="M227.4,29l-1.2-2.9h-0.6V29h-1.3v-7h1.9c1.6,0,2.4,0.8,2.4,2.1c0,0.9-0.3,1.5-1.1,1.8l1.3,3.1L227.4,29L227.4,29z
			 M225.6,25h0.7c0.6,0,1-0.3,1-1c0-0.7-0.4-1-1-1h-0.7V25z"/>
		<polygon points="229.5,29 229.5,21.9 233.2,21.9 233.2,23.1 230.8,23.1 230.8,24.7 232.6,24.7 232.6,25.9 230.8,25.9 230.8,27.8 
			233.3,27.8 233.3,29 		"/>
	</g>
</g>
<line class="st1" x1="366.3" y1="0" x2="366.3" y2="90"/>
</svg>
