<svg width="500" height="74" viewBox="0 0 500 74" fill="none" xmlns="http://www.w3.org/2000/svg">
<g clip-path="url(#clip0_14_212)">
<path d="M206.1 1.6001V71.6001H268.4V53.7001H231.7V1.6001H206.1Z" fill="white"/>
<path d="M270.9 1.6001H339.6V19.6001H296.5V28.3001H331.2V45.0001H296.5V53.7001H340.3V71.6001H270.9V1.6001Z" fill="white"/>
<path d="M363.6 36.6C363.6 21.1 373.6 17.4 380.1 17.4C386.6 17.4 396.6 21.1 396.6 36.6C396.6 52.2 386.6 55.9 380.1 55.9C373.6 55.9 363.6 52.2 363.6 36.6ZM338 36.6C338 58 354.9 73.3 380.1 73.3C405.3 73.3 422.2 58 422.2 36.6C422.2 15.3 405.3 0 380.1 0C354.9 0 338 15.3 338 36.6Z" fill="white"/>
<path d="M475 1.6001V39.1001H474.7L450.6 1.6001H424.4V71.6001H448.6V33.4001H448.8L474.3 71.6001H499.2V1.6001H475Z" fill="white"/>
<path d="M0 1.6001H5.10004L25.9 65.3001H26.1L48.5 1.6001H54.2L76.7 65.3001H76.9L97.6 1.6001H102.7L79.7 71.6001H74L51.5 7.90009H51.3L28.7 71.6001H23L0 1.6001Z" fill="white"/>
<path d="M143.1 43.6002C141.2 29.9002 131.6 23.8002 120.1 23.8002C107.1 23.8002 99 31.6002 97 43.6002H143.1ZM97 47.5002C97.3 60.1002 105.8 69.3002 120.9 69.3002C136.5 69.3002 140.5 59.5002 142.3 55.0002H146.8C142.6 67.6002 133.8 73.2001 120.5 73.2001C103.3 73.2001 92.5 62.8002 92.5 46.1002C92.5 35.7002 99.2 19.9001 120.5 19.9001C138 19.9001 148 31.4002 148.2 47.5002H97Z" fill="white"/>
<path d="M199.2 46.3001C199.2 31.0001 188.4 23.8001 176.8 23.8001C166.6 23.8001 153.9 29.4001 153.9 47.0001C153.9 55.9001 158.6 69.3001 177.4 69.3001C189.9 69.3001 199.2 60.7001 199.2 46.3001ZM150 1.6001H154.5V31.9001H154.7C157.6 26.4001 164.6 19.9001 176.9 19.9001C192.2 19.9001 203.7 30.5001 203.7 46.4001C203.7 60.6001 194.6 73.2001 176.9 73.2001C164 73.2001 157 66.8001 154.7 60.8001H154.5V71.6001H150V1.6001Z" fill="white"/>
</g>
<defs>
<clipPath id="clip0_14_212">
<rect width="499.2" height="73.3" fill="white"/>
</clipPath>
</defs>
</svg>
