<?xml version="1.0" encoding="utf-8"?>
<!-- Generator: Adobe Illustrator 26.5.0, SVG Export Plug-In . SVG Version: 6.00 Build 0)  -->
<svg version="1.1" id="レイヤー_1" xmlns="http://www.w3.org/2000/svg" xmlns:xlink="http://www.w3.org/1999/xlink" x="0px"
	 y="0px" viewBox="0 0 382.9 90" style="enable-background:new 0 0 382.9 90;" xml:space="preserve">
<style type="text/css">
	.st0{fill:#FFFFFF;}
	.st1{fill:none;stroke:#000000;stroke-miterlimit:10;}
</style>
<g>
	<polygon points="226.7,49.2 244.3,49.2 244.3,40.7 226.7,40.7 226.7,36.3 248.6,36.3 248.6,27.1 213.7,27.1 213.7,62.7 248.9,62.7 
		248.9,53.6 226.7,53.6 	"/>
	<path d="M268.8,26.3c-12.8,0-21.4,7.8-21.4,18.6s8.5,18.6,21.4,18.6c12.8,0,21.4-7.8,21.4-18.6S281.6,26.3,268.8,26.3z M268.8,54.7
		c-3.3,0-8.4-1.9-8.4-9.8s5.1-9.8,8.4-9.8s8.4,1.9,8.4,9.8C277.1,52.9,272,54.7,268.8,54.7z"/>
	<polygon points="316.6,27.1 316.6,46.2 316.5,46.2 304.2,27.1 291,27.1 291,62.7 303.2,62.7 303.2,43.3 303.3,43.3 316.2,62.7 
		328.8,62.7 328.8,27.1 	"/>
	<path d="M81.6,27.4l-0.2,0.3c0,0-1,1.9-2.1,1.5c-0.3-0.1-0.7-0.3-1.3-0.5c-1.9-0.8-4.8-2-8.9-2c-3.3,0-8.7,0.9-13.5,3.6
		c-6,3.4-9.1,8.7-9.1,15.4c0,1.9,0.4,5.5,2.9,9c1.9,2.7,7.6,9,19.2,9c7.6,0,13.4-2.1,16.7-6.1c3-3.6,3.6-8,3.1-10.9l-0.1-0.4H76.3
		v0.5c0,0.1-0.2,8.1-5.1,8.1c-4.7,0-5.2-4.1-5.2-7.2v-7.5c0-0.1,0.1-5,5.1-5c4.5,0,5,5.3,5.1,6.8l-0.1,0.1l0.1,0.4
		c0.1,0.4,0.4,0.4,1.1,0.4c0.3,0,0.7,0,1.3,0c1.1,0,2.5,0,4,0c2.8,0,5.8,0,5.8,0h0.5V27.4H82H81.6z M87.7,28.5v13.4
		c-3.7,0-8.8,0.1-10.4,0c-0.2-3.1-1.6-7.8-6.2-7.8c-5.1,0-6.2,4.4-6.2,6.1v7.5c0,1.5,0.1,3.4,0.9,5c1,2.2,2.8,3.3,5.5,3.3
		c2.5,0,4.4-1.6,5.5-4.7c0.5-1.6,0.7-3.1,0.7-4h10.2c0.3,2.7-0.3,6.4-2.9,9.6c-3.1,3.7-8.7,5.8-15.9,5.8c-11.1,0-16.4-6-18.3-8.6
		c-2.5-3.4-2.7-7-2.7-8.5c0-6.3,2.8-11.2,8.5-14.4c4.5-2.5,9.7-3.4,12.9-3.4c4,0,6.7,1.1,8.5,1.9c0.5,0.2,1,0.4,1.3,0.5
		c1.6,0.5,2.8-1.1,3.3-1.8C82.3,28.5,87.7,28.5,87.7,28.5z"/>
	<path d="M146.3,57c0,0-1.2,0.1-1.9-0.7c-0.4-0.4-0.6-0.9-0.6-1.6V36.9h-15.5v5.7l0.5,0.1c0.7,0.1,2.7,0.6,2.7,1.6V54
		c0,0.7-1.1,2.5-3.7,2.5c-2.5,0-4-1.2-4-3.1c0-2.2,0.2-15.8,0.2-16v-0.6h-15.5v5.2v0.5h0.5c0.2,0,2.2,0.1,2.2,2.2v9.7
		c0,1.3,0.3,3.8,2.2,6c1.9,2.2,4.9,3.2,8.8,3.2c3.2,0,6.3-0.7,8.7-1.9l0.5,1.1h15.3v-5.4V57L146.3,57z M145.8,61.9h-13.5l-0.7-1.6
		l-0.5,0.3c-2.2,1.3-5.4,2-8.7,2c-9.4,0-9.9-6.7-9.9-8.1v-9.7c0-1.7-1-2.5-1.7-2.8c-0.4-0.2-0.8-0.3-1.1-0.4v-3.6h13.3
		c0,2.6-0.2,13.5-0.2,15.4c0,2.5,2,4.3,5.1,4.3c3.1,0,4.7-2.3,4.7-3.7v-9.7c0-1.8-2.2-2.5-3.2-2.7V38h13.3v16.8c0,1.1,0.3,1.8,1,2.4
		c0.7,0.7,1.6,0.8,2.2,0.9L145.8,61.9L145.8,61.9z"/>
	<path d="M106.9,54V27.4H90.4l-0.1,6.1h0.6c2.2,0,2.5,1.6,2.5,2.9V54c0,1.9-1.5,2.8-2.5,2.8h-0.5V63h19.8v-6.1h-0.7
		C107.7,56.7,106.9,55.1,106.9,54z M108.9,61.8H91.3v-4c0.7-0.2,1.3-0.4,1.9-0.9c0.5-0.5,1.2-1.4,1.2-2.9V36.3c0-2.4-1.1-3.7-3-4
		l0.1-3.9h14.4V54c0,1.5,0.7,2.4,1.2,2.9c0.5,0.4,1.2,0.8,1.9,0.9L108.9,61.8L108.9,61.8z"/>
	<path d="M193.6,27.1h-13v12c-3.5-3-8.2-3.9-10.7-3.9c-3.4,0-6.7,1.3-8.1,2v-9.9h-16.5l-0.1,6.1h0.6c2.2,0,2.5,1.6,2.5,2.9V63h5.5
		v-3c0.3-0.1,1.1-0.1,1.9,0.3c0.1,0.1,0.2,0.1,0.3,0.2c1.6,0.8,5.8,3,10.8,3c1.9,0,6.7-0.2,11-2.5c1.1-0.6,2.1-1.3,2.9-2v3.9h31.6
		v-9.2h-18.7V27.1L193.6,27.1z M177.3,59.9c-4.2,2.2-9.1,2.4-10.5,2.4c-4.8,0-8.8-2.1-10.3-2.8c-0.1-0.1-0.2-0.1-0.3-0.2
		c-0.6-0.3-1.3-0.4-1.9-0.4c-0.4,0-0.8,0.1-1.1,0.2c-0.3,0.2-0.4,0.4-0.4,0.7v2.1h-3.3V36.5c0-2.4-1.1-3.7-3-4l0.1-3.9h14.4v10.8
		l0.8-0.4c0.1,0,4.2-2.3,8.5-2.3c1.5,0,4.9,0.4,7.9,2.2c3.9,2.2,5.8,5.7,5.8,10.3C183.8,53.9,181.6,57.6,177.3,59.9z"/>
	<path d="M165.8,41.6c-3.1,0-5.5,3.6-5.5,8.1s2.5,8.1,5.5,8.1c3.1,0,5.5-3.6,5.5-8.1C171.3,45.2,168.8,41.6,165.8,41.6z M165.8,56.6
		c-2.4,0-4.4-3.1-4.4-7s1.9-7,4.4-7c2.5,0,4.4,3.1,4.4,7C170.2,53.5,168.2,56.6,165.8,56.6z"/>
</g>
</svg>
