<svg viewBox="0 0 108.85 40" xmlns="http://www.w3.org/2000/svg" id="JP">
  <defs>
    <style>
      .cls-1, .cls-2, .cls-3 {
        stroke-width: 0px;
      }

      .cls-2 {
        fill: #a6a6a6;
      }

      .cls-3 {
        fill: #fff;
      }
    </style>
  </defs>
  <g>
    <path d="M99.32,0H9.53c-.37,0-.73,0-1.09,0-.31,0-.61,0-.92.01-.67,0-1.34.07-2,.18-.66.11-1.3.32-1.9.63-.6.31-1.14.7-1.62,1.18-.48.47-.88,1.02-1.18,1.62-.3.6-.51,1.24-.62,1.9C.08,6.18.02,6.85.02,7.52c0,.31-.01.61-.02.92v23.11c0,.31,0,.61.02.92,0,.67.07,1.34.18,2,.11.66.32,1.31.63,1.9.3.6.7,1.14,1.18,1.61.47.48,1.02.87,1.62,1.18.6.3,1.24.52,1.9.63.66.11,1.33.17,2,.18.31,0,.61.01.92.01.37,0,.73,0,1.09,0h89.79c.36,0,.72,0,1.08,0,.3,0,.62,0,.92-.01.67,0,1.34-.07,2-.18.66-.11,1.31-.33,1.91-.63.6-.3,1.14-.7,1.62-1.18.48-.47.87-1.02,1.18-1.61.3-.6.51-1.24.62-1.9.11-.66.17-1.33.19-2,0-.31,0-.61,0-.92,0-.36,0-.72,0-1.09V9.54c0-.37,0-.73,0-1.09,0-.31,0-.61,0-.92-.01-.67-.07-1.34-.19-2-.11-.66-.32-1.3-.62-1.9-.62-1.2-1.6-2.18-2.8-2.8-.6-.3-1.24-.51-1.91-.63-.66-.11-1.33-.17-2-.18-.3,0-.62-.01-.92-.01-.36,0-.72,0-1.08,0Z" class="cls-2"></path>
    <path d="M8.44,39.12c-.3,0-.6,0-.9-.01-.63,0-1.25-.06-1.87-.16-.58-.1-1.13-.28-1.66-.55-.52-.26-.99-.61-1.4-1.02-.41-.41-.76-.88-1.02-1.4-.26-.52-.45-1.08-.54-1.66-.1-.62-.16-1.25-.17-1.88,0-.21-.01-.91-.01-.91V8.44s0-.69.01-.89c0-.63.06-1.25.17-1.87.1-.58.28-1.14.54-1.66.26-.52.6-.99,1.02-1.4.41-.41.88-.76,1.4-1.02.52-.26,1.08-.45,1.65-.54.62-.1,1.25-.16,1.88-.16h.9s91.96-.01,91.96-.01h.91c.62.02,1.24.07,1.86.18.58.1,1.14.28,1.67.55,1.04.53,1.88,1.38,2.42,2.42.26.52.44,1.08.54,1.65.1.62.16,1.25.17,1.89,0,.28,0,.59,0,.89,0,.38,0,.73,0,1.09v20.93c0,.36,0,.72,0,1.08,0,.33,0,.62,0,.93-.01.62-.07,1.24-.17,1.85-.09.58-.28,1.14-.54,1.67-.26.51-.61.98-1.02,1.39-.41.41-.88.76-1.4,1.02-.53.27-1.09.45-1.67.55-.62.1-1.24.16-1.87.16-.29,0-.6.01-.9.01h-1.08s-90.88,0-90.88,0Z" class="cls-1"></path>
  </g>
  <g>
    <path d="M41.17,16.55h-4.05l-.97,2.87h-1.72l3.84-10.63h1.78l3.84,10.63h-1.75l-.97-2.87ZM37.54,15.23h3.21l-1.58-4.66h-.04l-1.58,4.66Z" class="cls-3"></path>
    <path d="M52.17,15.55c0,2.41-1.29,3.96-3.23,3.96-1.01.05-1.95-.47-2.44-1.36h-.04v3.84h-1.59v-10.31h1.54v1.29h.03c.51-.88,1.46-1.4,2.47-1.37,1.97,0,3.26,1.55,3.26,3.96ZM50.54,15.55c0-1.57-.81-2.6-2.05-2.6s-2.03,1.05-2.03,2.6.82,2.61,2.03,2.61,2.05-1.02,2.05-2.61h0Z" class="cls-3"></path>
    <path d="M60.7,15.55c0,2.41-1.29,3.96-3.23,3.96-1.01.05-1.95-.47-2.44-1.36h-.04v3.84h-1.59v-10.31h1.54v1.29h.03c.51-.88,1.46-1.4,2.47-1.37,1.97,0,3.26,1.55,3.26,3.96ZM59.07,15.55c0-1.57-.81-2.6-2.05-2.6s-2.03,1.05-2.03,2.6.82,2.61,2.03,2.61,2.05-1.02,2.05-2.61Z" class="cls-3"></path>
    <path d="M66.34,16.47c.12,1.05,1.14,1.75,2.54,1.75s2.31-.69,2.31-1.64c0-.82-.58-1.32-1.96-1.66l-1.38-.33c-1.95-.47-2.86-1.38-2.86-2.87,0-1.83,1.6-3.09,3.87-3.09s3.79,1.26,3.84,3.09h-1.61c-.1-1.06-.97-1.7-2.25-1.7s-2.16.65-2.16,1.59c0,.75.56,1.19,1.93,1.53l1.17.29c2.18.52,3.09,1.39,3.09,2.95,0,1.99-1.58,3.23-4.1,3.23-2.36,0-3.95-1.22-4.05-3.14h1.63Z" class="cls-3"></path>
    <path d="M76.3,9.84v1.83h1.47v1.26h-1.47v4.27c0,.66.3.97.94.97.17,0,.35-.02.52-.04v1.25c-.29.05-.59.08-.88.07-1.57,0-2.18-.59-2.18-2.09v-4.44h-1.13v-1.26h1.13v-1.83h1.6Z" class="cls-3"></path>
    <path d="M78.63,15.55c0-2.44,1.44-3.97,3.68-3.97s3.68,1.53,3.68,3.97-1.42,3.97-3.68,3.97c-2.25,0-3.68-1.53-3.68-3.97ZM84.36,15.55c0-1.67-.77-2.66-2.06-2.66s-2.06.99-2.06,2.66.77,2.66,2.06,2.66,2.06-.98,2.06-2.66Z" class="cls-3"></path>
    <path d="M87.29,11.68h1.52v1.32h.04c.21-.85.99-1.43,1.86-1.4.18,0,.37.02.54.06v1.49c-.23-.07-.47-.1-.71-.1-.88-.04-1.63.65-1.67,1.54,0,.08,0,.16,0,.25v4.6h-1.59v-7.75Z" class="cls-3"></path>
    <path d="M98.59,17.15c-.36,1.51-1.79,2.53-3.34,2.37-2.25,0-3.65-1.51-3.65-3.93s1.41-4.01,3.59-4.01,3.49,1.47,3.49,3.82v.55h-5.47v.1c-.1,1.11.72,2.09,1.83,2.19.08,0,.17,0,.25,0,.77.07,1.5-.37,1.79-1.09h1.51ZM93.21,14.84h3.87c.06-1.03-.73-1.91-1.76-1.96-.05,0-.1,0-.14,0-1.08,0-1.97.87-1.97,1.95,0,0,0,.01,0,.02Z" class="cls-3"></path>
  </g>
  <g>
    <path d="M36.44,30.81l.07-.82c.31.1.63.15.95.15.29,0,.4-.03.55-.23.34-.72.49-1.52.43-2.32,0-.85-.26-1.09-.93-1.09-.15,0-.32,0-.51.02-.36,1.46-.96,2.86-1.77,4.12l-.78-.42c.76-1.1,1.32-2.32,1.65-3.62-.52.06-1.03.14-1.53.25l-.17-.83c.57-.1,1.26-.2,1.9-.25.13-.63.23-1.26.29-1.89l.92.1c-.08.57-.19,1.15-.32,1.71h.37c1.2,0,1.77.59,1.77,1.85.05.96-.14,1.92-.55,2.8-.22.41-.67.65-1.13.6-.41,0-.81-.05-1.21-.15ZM39.47,25.74l.69-.46c.95.92,1.53,2.16,1.61,3.48l-.9.14c-.01-1.2-.52-2.34-1.39-3.16Z" class="cls-3"></path>
    <path d="M44.89,30.94l-.19-.85c.24.02.55.03.73.03,1.86,0,2.57-.53,2.57-1.31,0-.62-.4-.98-1.31-.98-.99.09-1.9.54-2.58,1.26l-.73-.32c-.14-1.23.14-2.48.8-3.53l.84.27c-.52.71-.78,1.57-.72,2.45.76-.53,1.65-.84,2.57-.88,1.26,0,2.04.65,2.04,1.7,0,1.34-1.05,2.16-3.59,2.16-.12,0-.3,0-.45,0ZM44.01,24.69l.24-.83c1.25.19,2.49.47,3.7.85l-.23.82c-1.21-.39-2.45-.67-3.71-.84h0Z" class="cls-3"></path>
    <path d="M51.65,30.29c.97-.32,1.84-.88,2.53-1.64-.55-.45-1.14-.85-1.76-1.19l.52-.65c.63.32,1.23.7,1.79,1.13.45-.66.76-1.4.92-2.17h-2.4c-.55.89-1.24,1.69-2.05,2.36l-.69-.59c1.16-.96,2.06-2.2,2.62-3.6l.9.22c-.1.26-.21.54-.33.79h2.33l.67.31c-.33,2.6-2.06,4.82-4.51,5.76l-.55-.73ZM55.62,23.72l.53-.25c.27.36.49.75.67,1.16l-.59.27c-.15-.42-.35-.81-.6-1.18ZM56.8,23.63l.54-.25c.27.37.5.77.69,1.19l-.59.25c-.16-.42-.37-.82-.63-1.19h0Z" class="cls-3"></path>
    <path d="M60.92,30.99l-.48-.76c2.01-.32,3.45-2.12,3.31-4.15h-3.95v1.89h-.95v-2.69h2.36v-1.38h.95v1.38h1.76l.87.25c-.11,2.67-1.01,4.72-3.87,5.47Z" class="cls-3"></path>
    <path d="M66.62,25.34l.53-.77c.82.38,1.6.85,2.32,1.4l-.6.81c-.69-.57-1.44-1.05-2.24-1.44ZM66.8,29.98c2.34-.35,4.36-1.81,5.43-3.92l.62.7c-1.16,2.17-3.27,3.68-5.7,4.09l-.36-.88Z" class="cls-3"></path>
    <path d="M80.57,30.44h-5.92v-5.6h5.92v5.6ZM75.58,25.7v3.87h4.05v-3.87h-4.05Z" class="cls-3"></path>
    <path d="M89.05,27.92h-6.66v-.96h6.66v.96Z" class="cls-3"></path>
    <path d="M91.31,23.92h.93v2.41c1.24.52,2.44,1.12,3.6,1.8l-.53.83c-.98-.63-2.01-1.18-3.07-1.65v3.63h-.93v-7.02ZM93.53,24.43l.56-.26c.27.4.5.83.67,1.28l-.61.27c-.15-.45-.35-.89-.61-1.29ZM94.6,24.02l.57-.26c.29.4.52.83.71,1.28l-.61.27c-.17-.45-.39-.89-.66-1.29h0Z" class="cls-3"></path>
  </g>
  <g data-sanitized-data-name="Group" data-name="Group" id="_Group_">
    <g data-sanitized-data-name="Group 2" data-name="Group 2" id="_Group_2">
      <path d="M24.77,20.3c.02-1.7.91-3.26,2.36-4.15-.92-1.31-2.4-2.11-3.99-2.16-1.68-.18-3.31,1-4.16,1s-2.19-.99-3.61-.96c-1.87.06-3.56,1.1-4.47,2.73-1.93,3.35-.49,8.27,1.36,10.98.93,1.33,2.01,2.81,3.43,2.75,1.39-.06,1.91-.88,3.58-.88s2.14.88,3.59.85c1.49-.02,2.43-1.33,3.32-2.67.67-.94,1.18-1.99,1.52-3.09-1.77-.75-2.92-2.48-2.92-4.4Z" class="cls-3" data-sanitized-data-name="Path" data-name="Path" id="_Path_"></path>
      <path d="M22.04,12.21c.81-.97,1.21-2.23,1.11-3.49-1.24.13-2.39.72-3.21,1.66-.81.92-1.22,2.13-1.14,3.36,1.26.01,2.45-.55,3.24-1.53Z" class="cls-3" data-sanitized-data-name="Path 2" data-name="Path 2" id="_Path_2"></path>
    </g>
  </g>
</svg>