<svg viewBox="0 0 1200 800" version="1.1" xmlns:xlink="http://www.w3.org/1999/xlink" xmlns="http://www.w3.org/2000/svg">
  <defs>
    <style>
      .cls-1, .cls-2, .cls-3, .cls-4, .cls-5 {
        fill: none;
      }

      .cls-6 {
        fill: #654e07;
      }

      .cls-2 {
        stroke-width: 2.59px;
      }

      .cls-2, .cls-3, .cls-4, .cls-7, .cls-8 {
        stroke: #654e07;
      }

      .cls-2, .cls-3, .cls-5, .cls-8 {
        stroke-miterlimit: 10;
      }

      .cls-3 {
        stroke-width: 4.73px;
      }

      .cls-4, .cls-7 {
        stroke-linecap: round;
        stroke-linejoin: round;
      }

      .cls-4, .cls-7, .cls-5 {
        stroke-width: 1.42px;
      }

      .cls-7, .cls-9 {
        fill: #bea87a;
      }

      .cls-5 {
        stroke: #d3c5a5;
      }

      .cls-8, .cls-10 {
        fill: #dfd4bd;
      }

      .cls-11 {
        clip-path: url(#clippath);
      }
    </style>
    <clipPath id="clippath">
      <rect height="134.85" width="202.99" y="141.1" x="861.49" class="cls-1"></rect>
    </clipPath>
  </defs>
  
  <g>
    <g data-sanitized-data-name="レイヤー_3" data-name="レイヤー_3" id="_レイヤー_3">
      <rect height="800" width="1200" class="cls-9"></rect>
      <circle r="134.77" cy="215.14" cx="238.33" class="cls-5"></circle>
      <circle r="134.77" cy="215.14" cx="600.68" class="cls-5"></circle>
      <circle r="134.77" cy="215.14" cx="963.04" class="cls-5"></circle>
      <circle r="134.77" cy="583.42" cx="238.33" class="cls-5"></circle>
      <circle r="134.77" cy="583.42" cx="600.68" class="cls-5"></circle>
      <circle r="134.77" cy="583.42" cx="963.04" class="cls-5"></circle>
    </g>
    <g id="moji">
      <g>
        <g>
          <path d="M152.87,343.87c-1.12,0-1.69,0-2.48.04.13-.78.17-1.51.17-2.64v-11.32c0-1.25-.04-1.97-.17-2.74h2.4c-.13.84-.17,1.43-.17,2.72v12.1h6.57c1.19,0,1.81-.04,2.68-.15v2.12c-.73-.11-1.36-.13-2.68-.13h-6.31Z" class="cls-6"></path>
          <path d="M175.08,344c-.73-.11-1.32-.13-2.51-.13h-6.48c-1.15,0-1.66,0-2.46.04.13-.8.17-1.49.17-2.64v-11.56c0-.99-.04-1.58-.17-2.57.73.04,1.4.07,2.46.07h6.27c1.02,0,1.81-.04,2.53-.15v2.12c-.73-.11-1.38-.15-2.53-.15h-6.53v5.21h5.55c1.02,0,1.71-.04,2.55-.15v2.1c-.78-.11-1.36-.15-2.55-.15h-5.55v6.03h6.74c1.08,0,1.69-.04,2.51-.15v2.1Z" class="cls-6"></path>
          <path d="M192.52,335.53c0,5.27-2.98,8.66-7.65,8.66s-7.63-3.37-7.63-8.66,3-8.64,7.65-8.64,7.63,3.35,7.63,8.64ZM190.4,335.55c0-2.33-.65-4.19-1.86-5.4-.95-.95-2.23-1.45-3.65-1.45-3.37,0-5.55,2.68-5.55,6.83s2.2,6.85,5.57,6.85,5.49-2.66,5.49-6.83Z" class="cls-6"></path>
          <path d="M197.81,327.21c.17.47.5,1.06,1.15,2.05l6.44,9.66c.37.54,1.02,1.6,1.49,2.46-.09-1.73-.13-3.05-.13-3.74v-7.82c0-1.1-.04-1.84-.17-2.61h2.33c-.13.8-.17,1.47-.17,2.64v11.49c0,1.12.04,1.79.17,2.53h-2.66c-.32-.69-.58-1.1-1.21-2.05l-6.53-9.85c-.24-.37-.91-1.51-1.27-2.23.09,1.32.13,2.83.13,3.74v7.63c0,1.23.04,2.03.17,2.77h-2.33c.13-.67.17-1.53.17-2.77v-11.37c0-1.04-.04-1.73-.17-2.53h2.59Z" class="cls-6"></path>
          <path d="M214.42,331.21c-.86,0-1.62.04-2.42.13v-1.88c.82.11,1.45.15,2.42.15h5.92v-1.75c0-.76-.04-1.27-.15-1.99h1.94c-.09.63-.13,1.25-.13,1.97v1.77h6.24c1.06,0,1.81-.04,2.48-.15v1.88c-.91-.09-1.58-.13-2.48-.13h-5.49c1.19,2.14,2.2,3.59,3.61,5.08,1.6,1.69,3.15,2.92,5.01,3.91-.52.63-.73.95-1.1,1.69-1.71-1.12-3-2.23-4.39-3.67-.93-.99-1.77-2.05-2.57-3.28-.58-.91-.86-1.4-1.43-2.66.06,1.19.11,2.1.11,2.74v4.49h2.29c1.06,0,1.51-.02,2.07-.11v1.79c-.63-.09-1.23-.13-2.16-.13h-2.2v1.9c0,1.02.04,1.81.15,2.53h-1.97c.09-.76.15-1.53.15-2.55v-1.88h-1.99c-.95,0-1.56.04-2.16.13v-1.79c.54.09.99.11,2.1.11h2.05v-4.49c0-.76.02-1.58.09-2.68-1.06,2.36-2.18,4.04-4,6.05-1.34,1.47-2.48,2.49-4.02,3.54-.37-.71-.56-.97-1.12-1.56,1.84-1.1,3.37-2.42,4.95-4.26,1.47-1.73,2.31-2.98,3.28-4.9h-5.1Z" class="cls-6"></path>
          <path d="M232.91,329.39c.5.09.91.11,1.73.11h3.78c.89,0,1.25-.02,1.73-.11v1.62c-.48-.04-.82-.07-1.58-.07h-3.93c-.76,0-1.17.02-1.73.09v-1.64ZM233.87,345.3c.06-.65.11-1.34.11-2.12v-2.94c0-.78-.02-1.17-.09-1.75.45.06.86.09,1.73.09h2.53c.73,0,1.17-.02,1.56-.06-.04.35-.06.89-.06,1.64v3.09c0,.74.02,1.28.09,1.75h-1.51v-.82h-2.79v1.12h-1.56ZM233.89,326.39c.48.09.86.11,1.62.11h2.57c.73,0,1.15-.02,1.62-.11v1.58c-.56-.06-.89-.09-1.62-.09h-2.57c-.69,0-1.15.02-1.62.09v-1.58ZM233.93,332.53c.45.07.73.09,1.43.09h2.87c.69,0,1.02-.02,1.4-.09v1.53c-.54-.04-.76-.06-1.4-.06h-2.87c-.69,0-.93.02-1.43.06v-1.53ZM233.93,335.53c.43.04.73.06,1.43.06h2.87c.73,0,.97-.02,1.4-.06v1.53c-.45-.07-.76-.09-1.43-.09h-2.85c-.69,0-1.02.02-1.43.09v-1.53ZM235.42,342.81h2.79v-2.9h-2.79v2.9ZM242.79,338.51c-.35,2.59-.63,3.67-1.45,5.6l-1.45-.82c.89-1.58,1.19-2.74,1.4-5.08l1.49.3ZM245.62,327.51c0-.69-.04-1.17-.13-1.73h1.81c-.09.52-.13,1.06-.13,1.77v1.32h3.37c.97,0,1.62-.04,2.25-.13v1.75c-.69-.09-1.32-.13-2.23-.13h-3.39v3.18h3.05c.91,0,1.58-.04,2.18-.13v1.73c-.6-.09-1.27-.13-2.16-.13h-6.94c-.89,0-1.58.04-2.2.13v-1.73c.63.11,1.19.13,2.18.13h2.33v-3.18h-2.64c-.91,0-1.64.04-2.2.11v-1.73c.6.09,1.25.13,2.23.13h2.61v-1.36ZM245.29,342.92c0,.54.17.63,1.34.63.93,0,1.27-.06,1.47-.3.22-.24.35-1.01.39-2.66.78.37.89.41,1.51.58-.24,3.59-.52,3.89-3.59,3.89-2.2,0-2.7-.28-2.7-1.56v-4.39c0-.65-.04-1.19-.13-1.73h1.81c-.09.47-.11.84-.11,1.62v3.91ZM245.66,335.21c1.47.89,2.42,1.6,3.5,2.66l-1.08,1.19c-1.1-1.21-1.79-1.79-3.39-2.79l.97-1.06ZM251.06,338.1c1.06,1.81,1.56,2.89,2.23,4.93l-1.51.71c-.54-2.14-.95-3.11-2.1-5.06l1.38-.58Z" class="cls-6"></path>
          <path d="M266.66,331.23c-.41.06-.5.06-1.27.24-1.36.26-2.2.41-3.15.5v3.48c1.77-.52,3.09-.73,4.6-.73s2.9.35,3.87.95c1.43.91,2.23,2.33,2.23,3.95,0,2.62-1.97,4.6-4.56,4.6-1.73,0-2.94-.86-3.39-2.44-.22-.73-.3-1.38-.3-2.53.8-.22,1.06-.32,1.71-.69-.02.41-.04.58-.04.84,0,.82.11,1.6.26,2.01.3.71.93,1.1,1.82,1.1,1.56,0,2.7-1.21,2.7-2.9,0-2.05-1.71-3.35-4.39-3.35-1.38,0-2.7.24-4.47.82v4.56c0,.97-.02,1.19-.11,1.56-.17.67-.8,1.08-1.66,1.08-1.25,0-2.7-.56-3.69-1.43-.71-.63-1.06-1.34-1.06-2.16,0-.97.58-1.97,1.75-2.96.8-.67,1.69-1.19,3.07-1.79v-3.87q-.17,0-.86.04c-.35.04-.71.04-1.21.04-.3,0-.91-.02-1.27-.02-.24-.02-.41-.02-.5-.02s-.24,0-.41.02v-1.73c.63.13,1.25.17,2.33.17q.5,0,1.92-.06v-1.92c0-.97-.04-1.51-.13-2.18h1.94c-.09.63-.11,1.06-.11,2.1v1.88c1.53-.15,3.2-.5,4.32-.89l.09,1.73ZM260.55,337.65c-2.01,1.02-3.13,2.12-3.13,3.07,0,.45.28.84.86,1.23.54.35,1.25.58,1.79.58.39,0,.48-.17.48-1.04v-3.85ZM272.45,333.5c-1.12-1.62-2.66-3.15-4.36-4.34l1.38-.99c1.92,1.4,3.09,2.51,4.34,4.19l-1.36,1.15Z" class="cls-6"></path>
          <path d="M280.1,332.01c-.15,7.13-.84,10.37-2.92,13.61-.41-.58-.78-.95-1.32-1.34,2.12-3.28,2.61-6.22,2.61-15.43,0-1.04-.02-1.66-.11-2.4.69.09,1.45.11,2.68.11h11.58c.99,0,1.64-.02,2.31-.11-.04.5-.04.8-.04,1.77v2.18c0,.8.02,1.27.04,1.66-.84-.04-1.38-.07-2.18-.07h-12.66ZM293.32,330.54v-2.46h-13.2v2.46h13.2ZM292.09,334.8c1.1,0,1.88-.02,2.44-.11-.06.82-.09,1.45-.09,2.33v6.27c0,1.08.04,1.73.13,2.33h-1.71v-.99h-9.79v.99h-1.71c.09-.58.13-1.47.13-2.51v-6.14c0-.73-.02-1.58-.09-2.27.76.06,1.38.09,2.46.09h3.2v-.3c0-.74-.04-1.23-.13-1.9h1.84c-.09.54-.13,1.06-.13,1.88v.32h3.44ZM283.08,336.2v2.72h4v-2.72h-4ZM283.08,340.33v2.9h4v-2.9h-4ZM288.65,338.92h4.21v-2.72h-4.21v2.72ZM288.65,343.22h4.21v-2.9h-4.21v2.9Z" class="cls-6"></path>
          <path d="M303.13,327.13c-.71,2.14-1.32,6.42-1.32,9.44,0,.93.04,1.94.15,3.11.02.39.06.99.09,1.38.37-1.49.6-2.16,1.64-4.47l1.38.65c-.65,1.27-1.21,2.61-1.64,3.87-.45,1.27-.63,2.03-.63,2.79l-1.77.11c-.04-.26-.06-.35-.17-.76-.54-2.14-.8-4.26-.8-6.59,0-2.51.17-4.15.84-8.28.15-.84.17-1.04.17-1.51l2.05.26ZM305.14,331.38c.86.22,2.03.3,3.69.3.91,0,1.53-.02,2.66-.13-.15-3.95-.17-4.28-.28-4.95l1.97-.02c-.04.35-.04.5-.04.71,0,.13,0,.24.02.65.02.48.04,1.62.11,3.44,1.58-.24,2.59-.52,3.39-.89l.11,1.84c-.39.07-.48.09-1.17.24-.91.22-1.34.3-2.29.43q.02.5.02,1.56c0,2.85-.19,4.32-.76,5.83-.69,1.9-1.9,3.18-4.34,4.56-.54-.67-.76-.89-1.45-1.4,1.51-.71,2.51-1.45,3.31-2.46,1.08-1.36,1.47-2.96,1.47-6.2,0-.5,0-1.12-.02-1.71-.84.07-2.18.13-3.15.13-.63,0-1.53-.02-2.55-.09-.17-.02-.3-.02-.39-.02h-.3v-1.81Z" class="cls-6"></path>
        </g>
        <g>
          <polygon points="177.08 141.49 166.89 142.08 175.37 169.13 203.5 167.44 200.48 160.56 183.86 161.22 177.08 141.49" class="cls-6"></polygon>
          <polygon points="211.17 156.5 224.68 155.72 221.84 149.33 208 150.15 206.88 146.77 223.75 145.79 220.7 138.91 195.06 140.38 205.08 167.35 232.88 165.75 229.83 158.86 212.3 159.88 211.17 156.5" class="cls-6"></polygon>
          <path d="M237.13,137.26c-10.06.61-14.18,6.88-10.54,15.07,3.64,8.2,13,13.69,23.11,13.1,10.11-.6,14.23-6.89,10.54-15.11-3.68-8.21-13.05-13.67-23.11-13.06ZM246.7,158.71c-2.61.15-7.23-1-9.89-6.99-2.66-5.98.71-7.62,3.31-7.77,2.6-.16,7.21,1,9.89,6.98,2.68,5.99-.7,7.62-3.3,7.78Z" class="cls-6"></path>
          <polygon points="277.15 135.42 282.33 149.94 282.24 149.95 267.72 135.99 257.29 136.64 267.73 163.7 277.42 163.12 270.79 148.4 270.89 148.39 287.71 162.49 297.68 161.88 287.52 134.75 277.15 135.42" class="cls-6"></polygon>
        </g>
        <polyline points="134.58 122.79 176.72 293.98 342.08 265.55 290.08 107.69 144.78 113.68 184.82 277.74 342.08 265.55" class="cls-4"></polyline>
      </g>
      <g>
        <polyline points="595.2 245.77 629.37 146.74 626.69 127.08 575.77 133.99 527.03 247.86 529.71 267.52 667.26 300.71 678.16 265.78 675.49 246.13 595.2 245.77" class="cls-8"></polyline>
        <g>
          <path d="M560.99,328.7c-.45,0-1.04.04-1.77.11v-1.86c.5.09.91.11,1.75.11h3.03c1.02,0,1.56-.02,1.99-.13-.06.52-.09.95-.09,1.43,0,2.79.65,5.36,1.99,7.82.84,1.58,1.92,3,3.31,4.39,1.21,1.21,1.99,1.81,3.8,2.9-.67.6-.86.84-1.4,1.68-2.55-1.77-4.3-3.54-5.9-5.96-1.27-1.92-2.03-3.7-2.61-6.12-.71,2.85-1.6,4.86-3.07,6.87-1.45,2.03-3.09,3.57-5.55,5.27-.39-.69-.71-1.08-1.34-1.58,2.18-1.32,3.37-2.31,4.82-4,1.62-1.88,2.77-4,3.44-6.31.45-1.51.6-2.61.71-4.62h-3.09Z" class="cls-6"></path>
          <path d="M588.26,325.94c1.04,1.56,1.94,2.53,3.61,3.78,1.88,1.45,3.89,2.57,5.86,3.31-.48.65-.73,1.1-.95,1.69-2.03-.95-4.13-2.23-5.86-3.63-1.49-1.17-2.51-2.23-3.52-3.65-1.02,1.4-1.9,2.33-3.33,3.52-1.88,1.6-3.63,2.7-5.7,3.65-.26-.58-.6-1.1-1.02-1.51,2.18-.91,3.89-1.95,5.64-3.37,1.47-1.19,2.51-2.33,3.44-3.78h1.84ZM580.78,338.17c-1.08,0-1.84.04-2.48.13v-1.84c.69.09,1.43.13,2.48.13h13.33c1.1,0,1.81-.04,2.48-.13v1.84c-.65-.09-1.4-.13-2.48-.13h-7.65c-.95,2.14-1.53,3.24-2.57,4.86,1.99-.11,5.19-.41,7.95-.76-1.08-1.19-1.49-1.62-2.48-2.57l1.38-.78c2.35,2.29,3.67,3.78,5.16,5.7l-1.45,1.04c-.76-1.08-1.02-1.47-1.49-2.05-3.63.47-7.43.89-10.67,1.12-2.2.17-2.85.24-3.39.35l-.28-1.9c.41.04.8.06,1.12.06q.3,0,2.18-.11c1.17-1.82,1.86-3.16,2.64-4.97h-3.78ZM582.12,332.48c.5.07.95.09,1.75.09h7.02c.84,0,1.36-.02,1.86-.09v1.73c-.52-.06-1.06-.09-1.84-.09h-7.07c-.65,0-1.25.02-1.73.09v-1.73Z" class="cls-6"></path>
          <path d="M602.1,331.84c-.26,1.38-.45,2.01-.91,3.24-.65-.39-.91-.52-1.4-.69.5-1.19.76-2.1.99-3.52.17-.97.28-2.01.28-2.74,0-.19,0-.32-.02-.61l1.62.24c-.04.28-.06.35-.09.71-.04.5-.13,1.08-.24,1.88h1.36v-2.74c0-.71-.04-1.23-.15-1.79h1.88c-.11.54-.15,1.06-.15,1.79v2.74h.39c.82,0,1.36-.04,1.86-.13v1.73c-.56-.09-1.1-.11-1.75-.11h-.5v4.11q.28-.13,1.86-.84l.15,1.04c.54.09,1.19.13,2.23.13h5.92v-2.29h-6.03c-1.02,0-1.69.04-2.27.13v-1.73c.56.09,1.25.13,2.27.13h2.87v-2.68h-2.2c-.84,0-1.53.04-2.1.11v-1.71c.56.09,1.21.13,2.1.13h2.2v-.82c0-.65-.04-1.19-.13-1.71h1.86c-.09.52-.13,1.01-.13,1.68v.84h2.81c.89,0,1.53-.04,2.1-.13v1.71c-.58-.06-1.25-.11-2.1-.11h-2.81v2.68h3.5c1.02,0,1.69-.04,2.25-.13v1.73c-.56-.09-1.32-.13-2.16-.13h-.43v2.29h.45c.99,0,1.58-.02,2.12-.13v1.73c-.65-.09-1.23-.13-2.12-.13h-.45v5.83c0,1.34-.56,1.73-2.51,1.73-.6,0-1.27-.02-2.12-.09-.06-.76-.15-1.15-.39-1.73.99.17,1.88.26,2.51.26.78,0,.91-.09.91-.6v-5.4h-6.05c-.91,0-1.47.04-2.12.13v-1.27c-.6.35-.78.41-1.99.97v5.71c0,.86.04,1.62.15,2.35h-1.88c.09-.52.15-1.43.15-2.35v-5.04q-2.9,1.15-3.18,1.3l-.5-1.82c.84-.13,1.97-.47,3.67-1.12v-4.75h-1.6ZM609.75,338.32c1.23,1.17,2.01,2.05,3.02,3.46l-1.36,1.02c-.84-1.38-1.69-2.46-2.92-3.61l1.25-.86Z" class="cls-6"></path>
          <path d="M630.17,341.67c-2.33,2.1-3.85,3-6.63,3.95-.48-.78-.69-1.04-1.21-1.51,1.6-.41,2.44-.73,3.63-1.38,1.1-.58,1.66-1.02,2.81-2.03l1.4.97ZM629.17,327.95c0-.97-.02-1.36-.13-1.9h1.79c-.11.56-.13.97-.13,1.92v.89h3.11v-.89c0-1.02-.02-1.4-.13-1.92h1.81c-.11.56-.15,1.02-.15,1.92v.89h2.96c1.06,0,1.64-.02,2.07-.06-.06.43-.09.97-.09,1.75v8.1c.91,0,1.36-.04,1.99-.13v1.75c-.65-.09-1.34-.13-2.33-.13h-15.25c-.97,0-1.69.04-2.33.13v-1.75c.63.09,1.02.11,1.97.13v-8.1c0-.78-.02-1.25-.09-1.75.54.04,1.1.06,2.01.06h2.92v-.91ZM629.17,330.32h-3.24v3.26h3.24v-3.26ZM629.17,335.05h-3.24v3.59h3.24v-3.59ZM633.82,333.59v-3.26h-3.11v3.26h3.11ZM633.82,338.64v-3.59h-3.11v3.59h3.11ZM635.2,340.72c1.19.99,1.77,1.4,2.92,1.99,1.34.73,2.25,1.06,3.87,1.49-.5.58-.67.84-1.06,1.56-1.58-.5-2.51-.93-3.78-1.66-1.15-.67-1.84-1.19-3.22-2.38l1.27-.99ZM638.7,333.59v-3.26h-3.35v3.26h3.35ZM638.7,338.64v-3.59h-3.35v3.59h3.35Z" class="cls-6"></path>
        </g>
        <polyline points="592.53 226.11 675.49 246.13 664.59 281.05 527.03 247.86 573.1 114.34 626.69 127.08 592.53 226.11" class="cls-7"></polyline>
        <path d="M527.39,80.55c-11.4,15.04,2.97,24.43,13.66,32.53,10.69,8.1,30.03.58,30.03.58,0,0,2.01-20.65-8.68-28.76-10.69-8.1-23.61-19.4-35.01-4.36ZM555.99,89.53c.62.48,1.24.95,1.84,1.41,2.65,2.01,4.56,6.32,5.39,12.13.25,1.79.37,3.49.42,4.97-1.43.35-3.11.7-4.9.94-5.82.78-10.49.1-13.14-1.91-.61-.46-1.23-.92-1.85-1.39-5.49-4.12-12.32-9.24-12.95-13.75-.4-2.85,1.86-5.82,2.6-6.8.74-.98,3-3.96,5.85-4.34,4.51-.61,11.29,4.58,16.74,8.75Z" class="cls-7"></path>
        <circle r="8.09" cy="115.01" cx="572.2" class="cls-7"></circle>
      </g>
      <g>
        <g>
          <path d="M860.34,341.93c-.89,0-1.51.02-2.33.11.06-.5.11-1.3.11-2.48v-4.82c0-1.04-.02-1.66-.11-2.36.71.04,1.12.07,2.36.07h10.41c1.3,0,1.77-.02,2.44-.07-.09.69-.11,1.28-.11,2.36v4.86c0,1.21.02,1.97.11,2.44-.8-.09-1.43-.11-2.33-.11h-1.99c.91.58,1.25.78,2.14,1.12,1.3.52,2.29.78,4.41,1.15-.39.45-.63.84-.91,1.51-2.18-.54-2.74-.69-3.74-1.08-1.25-.5-1.99-.89-3.24-1.73l1.25-.97h-6.85l1.27.97c-1.08.8-1.79,1.23-3.02,1.75-.89.39-1.56.6-3.5,1.1-.28-.58-.48-.89-1.02-1.47,2.2-.41,3.09-.67,4.28-1.17.78-.35,1.08-.54,1.88-1.19h-1.51ZM874.45,329.76c0,.69.02,1.1.09,1.58-.56-.04-.99-.06-2.33-.06h-13.27c-1.17,0-1.86.02-2.31.06.06-.56.09-.89.09-1.58v-1.6c0-.69-.02-1.1-.09-1.62.54.06,1.23.09,2.42.09h13.05c1.21,0,1.88-.02,2.44-.09-.06.52-.09.89-.09,1.62v1.6ZM862.07,327.95h-3.78v2.03h3.78v-2.03ZM859.71,335.16h11.8v-1.43h-11.8v1.43ZM859.71,337.84h11.8v-1.4h-11.8v1.4ZM859.71,340.63h11.8v-1.51h-11.8v1.51ZM867.38,327.95h-3.78v2.03h3.78v-2.03ZM872.85,329.98v-2.03h-3.93v2.03h3.93Z" class="cls-6"></path>
          <path d="M880.49,332.01c.56.02.86.04,1.32.04,1.92,0,5.79-.26,7.74-.52.52-.09.78-.15,1.08-.26l1.1,1.36c-.43.32-.76.63-1.9,1.75-1.64,1.62-3.18,3-4.13,3.72.97-.43,1.4-.56,1.94-.56.63,0,1.17.24,1.56.67.39.43.5.86.6,2.1.09,1.19.17,1.6.41,1.92.28.37.76.52,1.64.52,1.56,0,3.22-.3,4.36-.8l.26,1.94q-.28.02-1.79.26c-1.25.22-2.03.28-2.98.28-1.69,0-2.66-.39-3.13-1.25-.28-.5-.37-.91-.48-2.36-.06-.93-.11-1.21-.24-1.47-.15-.3-.52-.5-.95-.5-1.1,0-2.14.61-3.91,2.27-1.08,1.02-2.42,2.4-3.2,3.28l-1.43-1.6c.78-.54,1.1-.8,2.31-1.92,2.01-1.88,3.48-3.28,4.95-4.73.26-.26,1.34-1.3,3.26-3.13-1.56.3-1.79.32-6.81.71-.67.04-.89.07-1.47.15l-.13-1.88ZM883.04,326.61c2.38.78,5.03,1.21,8.04,1.3l-.32,1.71c-3.87-.3-5.51-.58-8.32-1.4l.6-1.6Z" class="cls-6"></path>
          <path d="M902.9,327.58c.63.11,1.08.13,2.18.13,1.81,0,4.67-.13,6.59-.28.63-.04.82-.09,1.12-.26l1.04,1.4c-.32.17-.45.26-1.1.91-2.92,2.81-5.51,4.99-6.98,5.9l.04.09c1.75-.89,3.26-1.25,5.08-1.25,3.63,0,5.96,1.82,5.96,4.62,0,3.41-3.18,5.7-7.95,5.7-2.12,0-3.59-.48-4.39-1.4-.39-.45-.65-1.17-.65-1.82,0-1.53,1.4-2.68,3.31-2.68,1.45,0,2.74.63,3.61,1.77.43.58.67,1.08.97,2.05.8-.24,1.27-.45,1.77-.82.95-.67,1.47-1.64,1.47-2.77,0-1.99-1.71-3.18-4.54-3.18-3.2,0-6.52,1.34-9.07,3.67l-1.1-1.64c1.9-1.06,6.81-5.12,10.05-8.32.09-.09.11-.11.17-.17l.24-.24-.02-.04c-.06.02-.11.02-.17.02-.8.13-3.24.26-6.4.39-.45.02-.67.04-1.15.11l-.09-1.9ZM907.15,340.13c-.97,0-1.6.48-1.6,1.23,0,1.02,1.19,1.66,3.07,1.66.5,0,.73-.02,1.43-.13-.45-1.81-1.43-2.77-2.9-2.77Z" class="cls-6"></path>
          <path d="M923.68,343.87c-1.12,0-1.69,0-2.48.04.13-.78.17-1.51.17-2.64v-11.32c0-1.25-.04-1.97-.17-2.74h2.4c-.13.84-.17,1.43-.17,2.72v12.1h6.57c1.19,0,1.82-.04,2.68-.15v2.12c-.73-.11-1.36-.13-2.68-.13h-6.31Z" class="cls-6"></path>
          <path d="M945.89,344c-.73-.11-1.32-.13-2.51-.13h-6.48c-1.15,0-1.66,0-2.46.04.13-.8.17-1.49.17-2.64v-11.56c0-.99-.04-1.58-.17-2.57.73.04,1.4.07,2.46.07h6.27c1.02,0,1.81-.04,2.53-.15v2.12c-.73-.11-1.38-.15-2.53-.15h-6.53v5.21h5.55c1.02,0,1.71-.04,2.55-.15v2.1c-.78-.11-1.36-.15-2.55-.15h-5.55v6.03h6.74c1.08,0,1.69-.04,2.51-.15v2.1Z" class="cls-6"></path>
          <path d="M963.32,335.53c0,5.27-2.98,8.66-7.65,8.66s-7.63-3.37-7.63-8.66,3-8.64,7.65-8.64,7.63,3.35,7.63,8.64ZM961.2,335.55c0-2.33-.65-4.19-1.86-5.4-.95-.95-2.23-1.45-3.65-1.45-3.37,0-5.55,2.68-5.55,6.83s2.2,6.85,5.57,6.85,5.49-2.66,5.49-6.83Z" class="cls-6"></path>
          <path d="M968.61,327.21c.17.47.5,1.06,1.15,2.05l6.44,9.66c.37.54,1.02,1.6,1.49,2.46-.09-1.73-.13-3.05-.13-3.74v-7.82c0-1.1-.04-1.84-.17-2.61h2.33c-.13.8-.17,1.47-.17,2.64v11.49c0,1.12.04,1.79.17,2.53h-2.66c-.32-.69-.58-1.1-1.21-2.05l-6.52-9.85c-.24-.37-.91-1.51-1.28-2.23.09,1.32.13,2.83.13,3.74v7.63c0,1.23.04,2.03.17,2.77h-2.33c.13-.67.17-1.53.17-2.77v-11.37c0-1.04-.04-1.73-.17-2.53h2.59Z" class="cls-6"></path>
          <path d="M992.48,326.72c-.19.26-.22.26-.47.84-.52,1.1-.69,1.45-.95,1.88q.17-.04.54-.07h.26c3.02-.04,4.86-.06,5.51-.09.78-.02.91-.04,1.25-.17l1.06,1.04c-.19.28-.22.32-.48,1.12-.95,3.18-2.48,6.05-4.34,8.19-1.99,2.27-4.36,3.97-7.56,5.42-.41-.76-.63-1.02-1.3-1.58,3.26-1.32,5.51-2.9,7.56-5.32,1.62-1.9,2.92-4.34,3.69-7.04l-7.07.11c-1.38,2.16-3.07,4-5.12,5.57-.48-.65-.71-.86-1.47-1.32,2.33-1.56,3.93-3.33,5.47-6.03.8-1.38,1.19-2.31,1.3-3.07l2.12.5Z" class="cls-6"></path>
          <path d="M1004.75,334.54c.69.09,1.49.13,2.98.13h12.14c1.73,0,2.16-.02,2.92-.13v2.14c-.82-.09-1.45-.11-2.94-.11h-12.1c-1.71,0-2.25.02-3,.11v-2.14Z" class="cls-6"></path>
          <path d="M1031.54,334.41c-.09.24-.11.28-.19.61-.89,3.5-1.99,5.83-3.85,8.23-.69-.56-.95-.71-1.75-1.06,1.4-1.51,2.29-3.02,3.13-5.42.43-1.21.65-2.01.73-2.87l1.92.52ZM1034.33,328.96c0-1.12-.04-1.66-.13-2.23h2.12c-.09.63-.13,1.1-.13,2.27v1.34h5.23c1.3,0,1.92-.04,2.66-.15v1.94c-.86-.09-1.34-.11-2.61-.11h-5.25v10.57c0,1.3.02,1.75.11,2.44h-2.12c.09-.65.13-1.25.13-2.44v-10.57h-5.12c-1.23,0-1.77.02-2.59.11v-1.94c.76.11,1.38.15,2.61.15h5.1v-1.38ZM1040.77,333.91c.15.67.35,1.28.8,2.44.97,2.53,1.86,4.1,3.26,5.79-.76.41-1.02.56-1.68,1.15-1.45-2.07-2.29-3.7-3.31-6.42-.22-.63-.43-1.23-.63-1.86-.11-.35-.13-.39-.24-.63l1.79-.48ZM1045.35,327.36c0,1.36-1.1,2.46-2.46,2.46s-2.46-1.1-2.46-2.46,1.1-2.46,2.46-2.46,2.46,1.1,2.46,2.46ZM1041.37,327.36c0,.82.69,1.51,1.51,1.51s1.51-.69,1.51-1.51-.69-1.51-1.51-1.51-1.51.69-1.51,1.51Z" class="cls-6"></path>
          <path d="M1049.09,341.77c1.73-.07,4.32-.73,6.33-1.62,4.13-1.84,6.98-4.97,8.75-9.62.61.76.84.99,1.6,1.49-1.77,3.85-3.78,6.35-6.68,8.32-2.2,1.51-4.62,2.46-8.1,3.24-.69.15-.86.19-1.34.35l-.56-2.16ZM1050.6,328.38c2.4,1.53,3.74,2.57,5.31,4.11l-1.32,1.62c-1.62-1.73-3.35-3.13-5.27-4.28l1.28-1.45Z" class="cls-6"></path>
        </g>
        <rect height="134.85" width="202.99" y="141.1" x="861.49" class="cls-7"></rect>
        <path d="M929.42,203.83c4.52-2.26,5.72-6.65,5.72-9.84,0-6.12-4.12-11.97-12.51-11.97-2.66,0-7.38.6-10.31,5.19-1.13,1.8-1.93,4.06-2.06,6.52h4.92c.13-1.86.86-3.53,1.73-4.66,1.73-2.2,3.92-2.53,5.72-2.53,5.45,0,7.58,3.66,7.58,7.58s-2.33,5.85-3.73,6.59c-1.4.73-3.33,1.06-5.06.93v4.39c1.73-.07,3.66.27,5.06.93,3.39,1.53,4.39,4.92,4.39,7.45,0,4.92-3.79,8.98-8.71,8.98-2.79,0-5.39-1.2-6.85-3.33-.86-1.2-1.4-2.86-1.6-4.46h-4.92c.07,1.6.33,3.06,1,4.66,2.39,5.72,7.78,7.65,12.37,7.65,7.58,0,13.64-5.06,13.64-13.37,0-7.65-4.86-10.11-6.39-10.71ZM936.62,229.46l2.83,1.15,4.6-9.78-3.98-1.45-3.45,10.08ZM995.6,182.01c-3.53,0-7.98,1.73-11.37,6.65-2.93,4.26-4.46,9.98-4.46,16.3s1.53,12.04,4.46,16.3c3.39,4.92,7.85,6.65,11.37,6.65s7.98-1.73,11.37-6.65c2.93-4.26,4.46-9.98,4.46-16.3s-1.53-12.04-4.46-16.3c-3.39-4.92-7.85-6.65-11.37-6.65ZM1003.25,218.47c-2.33,3.73-5.39,4.92-7.65,4.92s-5.32-1.2-7.65-4.92c-2.39-3.79-3.26-8.85-3.26-13.5s.86-9.71,3.26-13.5c2.33-3.73,5.39-4.92,7.65-4.92s5.32,1.2,7.65,4.92c2.39,3.79,3.26,8.85,3.26,13.5s-.86,9.71-3.26,13.5ZM900.12,193.4l-8.9,15.42-8.8-15.42h-4.5l6.78,11.74h-5.48v2.9h7.14l2.64,4.55h-9.78v2.9h10.09v12.42h3.83v-12.42h10.24v-2.9h-9.93l2.64-4.55h7.3v-2.9h-5.64l6.88-11.74h-4.5ZM960.53,182.01c-3.53,0-7.98,1.73-11.37,6.65-2.93,4.26-4.46,9.98-4.46,16.3s1.53,12.04,4.46,16.3c3.39,4.92,7.85,6.65,11.37,6.65s7.98-1.73,11.37-6.65c2.93-4.26,4.46-9.98,4.46-16.3s-1.53-12.04-4.46-16.3c-3.39-4.92-7.85-6.65-11.37-6.65ZM968.18,218.47c-2.33,3.73-5.39,4.92-7.65,4.92s-5.32-1.2-7.65-4.92c-2.39-3.79-3.26-8.85-3.26-13.5s.86-9.71,3.26-13.5c2.33-3.73,5.39-4.92,7.65-4.92s5.32,1.2,7.65,4.92c2.39,3.79,3.26,8.85,3.26,13.5s-.86,9.71-3.26,13.5ZM1042.05,188.67c-3.39-4.92-7.85-6.65-11.37-6.65s-7.98,1.73-11.37,6.65c-2.93,4.26-4.46,9.98-4.46,16.3s1.53,12.04,4.46,16.3c3.39,4.92,7.85,6.65,11.37,6.65s7.98-1.73,11.37-6.65c2.93-4.26,4.46-9.98,4.46-16.3s-1.53-12.04-4.46-16.3ZM1038.32,218.47c-2.33,3.73-5.39,4.92-7.65,4.92s-5.32-1.2-7.65-4.92c-2.39-3.79-3.26-8.85-3.26-13.5s.86-9.71,3.26-13.5c2.33-3.73,5.39-4.92,7.65-4.92s5.32,1.2,7.65,4.92c2.39,3.79,3.26,8.85,3.26,13.5s-.86,9.71-3.26,13.5Z" class="cls-6"></path>
      </g>
      <g>
        <g>
          <path d="M492.34,699.96q-.06.39-.09,1.58c-.09,3.65-.67,5.75-2.14,7.63-1.32,1.64-2.92,2.74-5.55,3.78-.39-.84-.58-1.1-1.19-1.75,1.75-.52,2.79-1.04,3.89-1.92,2.27-1.84,3.07-3.93,3.07-8.12,0-.6,0-.76-.09-1.19h2.1ZM500.94,697.24c-.22.3-.28.39-.54.91-1.49,2.96-3.46,4.93-6.27,6.31-.43-.65-.63-.86-1.32-1.45,1.51-.6,2.33-1.1,3.35-2.03.97-.91,1.71-1.88,2.31-3.07h-12.01c-1.3,0-1.86.02-2.66.11v-1.97c.76.11,1.38.15,2.7.15h11.49c1.34,0,1.47,0,1.9-.15l1.04,1.19Z" class="cls-6"></path>
          <path d="M502.04,705.49c.3-.17.48-.3.73-.56.63-.63,2.55-2.92,3.74-4.47,1.25-1.64,1.84-2.05,2.85-2.05.93,0,1.34.28,2.92,2.03,2.57,2.81,4.84,4.99,7.28,7.02,1.06.86,1.43,1.12,1.88,1.38l-.99,2.16-2.01-1.77c-2.33-2.03-3.46-3.15-8.23-8.23-.35-.39-.58-.52-.86-.52-.24,0-.43.11-.65.35l-.8,1.04c-1.04,1.34-2.57,3.24-3.89,4.77l-.65.82-1.32-1.97ZM520.28,698.69c0,1.36-1.1,2.46-2.46,2.46s-2.46-1.1-2.46-2.46,1.1-2.46,2.46-2.46,2.46,1.1,2.46,2.46ZM516.3,698.69c0,.82.69,1.51,1.51,1.51s1.51-.69,1.51-1.51-.69-1.51-1.51-1.51-1.51.69-1.51,1.51Z" class="cls-6"></path>
          <path d="M527.86,695.4c-.06.48-.09,1.15-.09,2.03v5.29c0,1.1.02,1.62.09,2.18h-2.14c.09-.63.11-1.19.11-2.18v-5.27c0-1.02-.02-1.49-.11-2.05h2.14ZM537.5,695.43c-.09.56-.11.95-.11,2.12v2.44c0,3.41-.17,5.31-.56,6.59-.6,2.05-1.99,3.67-4.13,4.88-1.06.58-2.12.99-4.02,1.56-.28-.76-.43-1.02-1.08-1.79,2.25-.48,3.39-.91,4.62-1.75,2.1-1.41,2.87-2.81,3.13-5.75.06-.93.09-1.4.09-3.85v-2.31c0-1.32-.02-1.62-.09-2.14h2.14Z" class="cls-6"></path>
          <path d="M551.54,703.01c-.02.69-.11,1.53-.28,2.48-.41,2.4-1.34,4.13-2.92,5.47-.97.82-2.03,1.43-3.8,2.14-.39-.78-.58-1.06-1.23-1.68,2.77-.89,4.47-2.2,5.38-4.08.5-1.04.82-2.64.89-4.32h-5.62c-1.3,0-1.86.02-2.64.11v-1.94c.82.11,1.43.15,2.68.15h12.45c1.27,0,1.92-.04,2.68-.15v1.94c-.69-.07-1.51-.11-2.66-.11h-4.93ZM543.5,695.81c.73.13,1.25.15,2.66.15h8.17c1.43,0,1.94-.02,2.68-.15v1.95c-.61-.07-1.51-.11-2.66-.11h-8.21c-1.27,0-1.99.02-2.64.11v-1.95Z" class="cls-6"></path>
          <path d="M574.74,699.75q-.26.22-.69.69c-1.06,1.12-2.57,2.44-4.13,3.61v7.17c0,1.02.02,1.53.11,2.07h-2.01c.09-.58.11-.97.11-2.05v-6.12c-2.05,1.28-3.85,2.07-6.48,2.92-.28-.67-.43-.93-.93-1.58,2.05-.54,3.39-1.04,5.08-1.92,2.36-1.23,4.3-2.64,6.14-4.45.67-.65.91-.93,1.23-1.45l1.58,1.1Z" class="cls-6"></path>
          <path d="M576.71,702.82c.55.09,1.19.13,2.39.13h9.72c1.38,0,1.73-.02,2.33-.13v2.14c-.66-.09-1.16-.11-2.35-.11h-9.68c-1.37,0-1.8.02-2.4.11v-2.14Z" class="cls-6"></path>
          <path d="M598.5,702.53l-.19.61c-.89,3.52-1.99,5.86-3.85,8.23-.69-.54-.95-.71-1.75-1.06,1.4-1.49,2.29-3,3.13-5.42.43-1.19.65-2.01.73-2.85l1.92.5ZM601.29,697.11c0-1.12-.04-1.66-.13-2.23h2.12c-.09.63-.13,1.1-.13,2.27v1.32h5.23c1.3,0,1.92-.02,2.66-.15v1.97c-.86-.09-1.34-.11-2.61-.11h-5.25v10.54c0,1.3.02,1.77.11,2.44h-2.12c.09-.63.13-1.23.13-2.44v-10.54h-5.12c-1.23,0-1.77.02-2.59.11v-1.97c.76.13,1.38.15,2.61.15h5.1v-1.36ZM607.73,702.06c.15.67.35,1.27.8,2.42.97,2.55,1.86,4.1,3.26,5.81-.76.39-1.02.56-1.69,1.15-1.45-2.07-2.29-3.69-3.31-6.44-.22-.63-.43-1.23-.63-1.86-.11-.32-.13-.37-.24-.61l1.79-.47ZM608.1,693.96c1.02,1.21,1.51,1.94,2.27,3.35l-1.27.71c-.67-1.34-1.36-2.42-2.25-3.41l1.25-.65ZM610.82,693.18c1.02,1.19,1.49,1.86,2.27,3.28l-1.25.71c-.63-1.25-1.27-2.22-2.23-3.35l1.21-.65Z" class="cls-6"></path>
          <path d="M619.39,712.15c-1.12,0-1.69,0-2.48.04.13-.78.17-1.51.17-2.64v-11.32c0-1.25-.04-1.97-.17-2.74h2.4c-.13.84-.17,1.43-.17,2.72v12.1h6.57c1.19,0,1.82-.04,2.68-.15v2.12c-.73-.11-1.36-.13-2.68-.13h-6.31Z" class="cls-6"></path>
          <path d="M641.6,712.28c-.73-.11-1.32-.13-2.51-.13h-6.48c-1.15,0-1.66,0-2.46.04.13-.8.17-1.49.17-2.64v-11.56c0-.99-.04-1.58-.17-2.57.73.04,1.4.07,2.46.07h6.27c1.02,0,1.81-.04,2.53-.15v2.12c-.73-.11-1.38-.15-2.53-.15h-6.53v5.21h5.55c1.02,0,1.71-.04,2.55-.15v2.1c-.78-.11-1.36-.15-2.55-.15h-5.55v6.03h6.74c1.08,0,1.69-.04,2.51-.15v2.1Z" class="cls-6"></path>
          <path d="M659.04,703.81c0,5.27-2.98,8.66-7.65,8.66s-7.63-3.37-7.63-8.66,3-8.64,7.65-8.64,7.63,3.35,7.63,8.64ZM656.92,703.83c0-2.33-.65-4.19-1.86-5.4-.95-.95-2.23-1.45-3.65-1.45-3.37,0-5.55,2.68-5.55,6.83s2.2,6.85,5.57,6.85,5.49-2.66,5.49-6.83Z" class="cls-6"></path>
          <path d="M664.33,695.49c.17.47.5,1.06,1.15,2.05l6.44,9.66c.37.54,1.02,1.6,1.49,2.46-.09-1.73-.13-3.05-.13-3.74v-7.82c0-1.1-.04-1.84-.17-2.61h2.33c-.13.8-.17,1.47-.17,2.64v11.49c0,1.12.04,1.79.17,2.53h-2.66c-.32-.69-.58-1.1-1.21-2.05l-6.52-9.85c-.24-.37-.91-1.51-1.27-2.23.09,1.32.13,2.83.13,3.74v7.63c0,1.23.04,2.03.17,2.77h-2.33c.13-.67.17-1.53.17-2.77v-11.37c0-1.04-.04-1.73-.17-2.53h2.59Z" class="cls-6"></path>
          <path d="M681.46,698.32c-.67.78-1.12,1.23-2.18,2.14-.26-.43-.58-.73-1.17-1.1,2.12-1.6,3.26-2.87,4.15-4.65.19-.41.35-.76.41-1.1l1.77.37q-.15.24-.5.84c-.3.56-.56.95-.89,1.43h10.93c1.36,0,2.1-.04,2.72-.13v1.71c-.78-.06-1.1-.09-2.31-.11v3.59h1.08c.95,0,1.49-.02,2.1-.13v1.77c-.63-.11-1.17-.13-2.1-.13h-1.08v3.61h.65c.97,0,1.53-.04,2.07-.13v1.73c-.58-.09-1.17-.13-2.05-.13h-14.26c-.84,0-1.4.04-2.01.13v-1.73c.6.09,1.17.13,2.1.13h.56v-3.61h-1.06c-.91,0-1.45.02-2.12.13v-1.77c.6.11,1.15.13,2.12.13h1.06v-2.98ZM678.39,712.5c1.36-1.25,2.01-2.2,2.74-4.04l1.38.73c-.86,2.01-1.49,3-2.79,4.41l-1.34-1.1ZM682.95,701.3h2.31v-3.59h-2.31v3.59ZM682.95,706.42h2.31v-3.61h-2.31v3.61ZM684.74,713.55c0-1.53-.15-3.11-.43-4.54l1.47-.22c.37,1.77.5,2.74.63,4.54l-1.66.22ZM689.04,701.3v-3.59h-2.33v3.59h2.33ZM689.04,706.42v-3.61h-2.33v3.61h2.33ZM689.74,713.49c-.28-1.79-.54-2.79-1.1-4.41l1.43-.37c.63,1.53.82,2.23,1.3,4.36l-1.62.41ZM692.91,701.3v-3.59h-2.42v3.59h2.42ZM692.91,706.42v-3.61h-2.42v3.61h2.42ZM695.85,713.47c-.78-1.77-1.36-2.72-2.61-4.32l1.32-.69c1.25,1.51,1.92,2.53,2.77,4.1l-1.47.91Z" class="cls-6"></path>
          <path d="M702.18,702.92c-.93,0-1.4.02-1.9.11v-1.64c.43.09.91.11,1.88.11h1.66v-5.1c0-1.06-.04-1.73-.13-2.27h1.81c-.09.56-.11,1.17-.11,2.25v5.12h1.19c.76,0,1.17-.02,1.62-.09v1.6c-.48-.06-.95-.09-1.64-.09h-1.06c.95,1.66,1.73,2.64,2.98,3.72-.32.48-.63.97-.82,1.43-1.19-1.34-1.77-2.18-2.4-3.48.04.82.13,2.46.13,2.98v3.93c0,1.04.02,1.62.11,2.33h-1.81c.09-.71.13-1.4.13-2.38v-3.41c0-1.06.04-2.18.11-3.22-.95,2.72-1.81,4.3-3.22,5.88-.3-.74-.5-1.04-.89-1.49,1.04-1.06,1.73-2.05,2.51-3.52.52-.99.71-1.45,1.19-2.77h-1.34ZM701.62,695.45c.71,1.86,1.02,2.83,1.4,4.65l-1.32.56c-.39-1.97-.76-3.2-1.4-4.6l1.32-.61ZM708.79,695.97c-.73,2.46-.93,3-1.75,4.69l-1.19-.58c.78-1.58,1.1-2.55,1.56-4.69l1.38.58ZM715.53,696.48c0-1.14-.04-1.73-.13-2.33h1.9c-.11.69-.13,1.23-.13,2.31v9.79l.17-.04c.97-.24,1.47-.39,1.99-.61l.32,1.79c-.54.06-1.25.19-2.07.39l-.41.09v3.5c0,1.08.02,1.79.13,2.4h-1.9c.09-.65.13-1.19.13-2.44v-3.07l-5.4,1.28c-.89.22-1.51.39-2.03.56l-.35-1.79c.56-.02,1.27-.15,2.1-.35l5.68-1.32v-10.16ZM709.98,701.09c1.77,1.23,2.72,2.03,3.85,3.26l-1.06,1.27c-1.38-1.56-2.23-2.27-3.89-3.37l1.1-1.17ZM710.63,695.69c1.88,1.36,2.59,1.97,3.87,3.33l-1.06,1.3c-1.45-1.62-2.07-2.16-3.89-3.43l1.08-1.19Z" class="cls-6"></path>
        </g>
        <g>
          <path d="M533.99,656.86s19.11,5.09,23.37,6.22c4.27,1.14,3.22.4,3.89-2.15.68-2.55-3.64-3.09-10.33-7.6-6.69-4.51-9.98-10.85-8.74-15.53,1.25-4.68,5.27-19.81,8.67-32.57,3.4-12.76,33.98-19.98,43.83-56.98,7.43-27.9,6.58-44.65,8.15-54.44.35-2.16-.85-4.18-2.78-4.7l-20.39-5.43-20.39-5.43c-1.93-.51-3.97.65-4.75,2.69-3.5,9.28-12.56,23.38-19.99,51.29-9.85,37,13.1,58.48,9.7,71.23-3.4,12.76-7.42,27.89-8.67,32.57-1.25,4.68-7.26,8.54-15.3,9.13s-11.1-.84-11.78,1.71-1.96,2.67,2.31,3.8c4.27,1.14,22.41,5.97,22.41,5.97l.78.21Z" class="cls-4"></path>
          <circle r="3.48" cy="560.79" cx="563.87" class="cls-4"></circle>
          <circle r="3.48" cy="580.33" cx="561.41" class="cls-4"></circle>
          <circle r="5.58" cy="541.91" cx="573.23" class="cls-4"></circle>
          <circle r="5.58" cy="523.58" cx="588.5" class="cls-4"></circle>
          <circle r="5.58" cy="472.71" cx="586.44" class="cls-4"></circle>
          <circle r="4.42" cy="557.58" cx="580.14" class="cls-4"></circle>
          <circle r="4.42" cy="569.6" cx="549.21" class="cls-4"></circle>
        </g>
        <g>
          <circle r="3.48" cy="455.71" cx="597.75" class="cls-4"></circle>
          <circle r="3.48" cy="471.66" cx="630.12" class="cls-4"></circle>
          <circle r="5.58" cy="451.11" cx="617.5" class="cls-4"></circle>
          <circle r="4.42" cy="471.39" cx="612.89" class="cls-4"></circle>
        </g>
        <line y2="504.47" x2="575.07" y1="496.85" x1="547.35" class="cls-4"></line>
        <path d="M667.69,659.42s19.32-4.24,23.63-5.18c4.31-.95,3.04-1.12,2.48-3.7-.57-2.58-4.65-1.07-12.67-2.02-8.01-.95-13.85-5.07-14.88-9.8s-4.39-20.03-7.22-32.92c-2.83-12.9,21.05-33.33,12.85-70.73-6.18-28.2-14.61-42.7-17.7-52.12-.68-2.08-2.67-3.33-4.62-2.9l-20.61,4.52-20.61,4.52c-1.95.43-3.24,2.4-2.98,4.57,1.14,9.85-.45,26.54,5.73,54.74,8.2,37.4,38.44,45.97,41.26,58.87,2.83,12.9,6.18,28.19,7.22,32.92,1.04,4.73-2.54,10.92-9.42,15.13-6.88,4.21-10.25,4.34-9.69,6.92.57,2.58-.52,3.27,3.8,2.32,4.31-.95,22.66-4.97,22.66-4.97l.78-.17Z" class="cls-4"></path>
        <circle r="3.48" cy="558.27" cx="651.05" class="cls-4"></circle>
        <circle r="3.48" cy="578.83" cx="656.98" class="cls-4"></circle>
        <circle r="5.58" cy="539.27" cx="649.89" class="cls-4"></circle>
        <circle r="5.58" cy="515.98" cx="655.06" class="cls-4"></circle>
        <circle r="4.42" cy="550.03" cx="663.21" class="cls-4"></circle>
        <circle r="4.42" cy="574.89" cx="641.22" class="cls-4"></circle>
        <line y2="505.14" x2="634.36" y1="510.72" x1="606.38" class="cls-4"></line>
      </g>
      <g>
        <g>
          <path d="M168.29,696.14c-.32.28-.43.37-.78.74-1.56,1.64-3.26,3.13-5.19,4.52v8.97c0,1.32.02,1.94.11,2.55h-2.2c.11-.67.13-1.17.13-2.53v-7.78c-2.77,1.68-4.15,2.31-8.17,3.69-.32-.8-.48-1.06-1.02-1.73,4.1-1.08,7.8-2.92,11.26-5.6,1.97-1.53,3.48-3.05,4.08-4.08l1.77,1.25Z" class="cls-6"></path>
          <path d="M172.41,705.36c.3-.17.48-.3.73-.56.63-.63,2.55-2.92,3.74-4.47,1.25-1.64,1.84-2.05,2.85-2.05.93,0,1.34.28,2.92,2.03,2.57,2.81,4.84,4.99,7.28,7.02,1.06.86,1.43,1.12,1.88,1.38l-.99,2.16-2.01-1.77c-2.33-2.03-3.46-3.15-8.23-8.23-.35-.39-.58-.52-.86-.52-.24,0-.43.11-.65.35l-.8,1.04c-1.04,1.34-2.57,3.24-3.89,4.77l-.65.82-1.32-1.97ZM186.48,696.81c1.02,1.21,1.51,1.94,2.27,3.35l-1.27.71c-.67-1.34-1.36-2.42-2.25-3.41l1.25-.65ZM188.94,695.64c1.02,1.19,1.49,1.86,2.27,3.29l-1.25.71c-.63-1.25-1.27-2.23-2.23-3.35l1.21-.65Z" class="cls-6"></path>
          <path d="M195.85,710.05c1.73-.06,4.32-.73,6.33-1.62,4.13-1.84,6.98-4.97,8.75-9.61.6.76.84.99,1.6,1.49-1.77,3.85-3.78,6.35-6.68,8.32-2.2,1.51-4.62,2.46-8.1,3.24-.69.15-.86.2-1.34.35l-.56-2.16ZM197.37,696.66c2.4,1.53,3.74,2.57,5.32,4.11l-1.32,1.62c-1.62-1.73-3.35-3.13-5.27-4.28l1.27-1.45Z" class="cls-6"></path>
          <path d="M220.74,712.9c.11-.71.13-1.27.13-2.51v-13.16c0-1.3-.02-1.82-.13-2.38h2.18c-.09.63-.11,1.23-.11,2.44v3.85c3.05,1.08,5.98,2.44,9.66,4.56l-1.08,1.88c-1.9-1.34-4.88-2.94-7.95-4.24-.32-.15-.41-.17-.71-.37.06.54.09.91.09,1.77v5.64c0,1.14.02,1.84.11,2.51h-2.18Z" class="cls-6"></path>
          <path d="M239.13,704.28c0-1.12.02-1.51.06-2.44-.48,1.02-.84,1.6-1.75,2.83-.3-.65-.56-1.06-.95-1.51,1.27-1.49,2.2-3.05,3.05-5.06.63-1.49,1.06-2.94,1.23-4.19l1.66.58c-.13.32-.17.45-.35,1.06-.45,1.45-.78,2.29-1.43,3.72v12.06c0,.99.04,1.82.11,2.53h-1.77c.11-.89.13-1.49.13-2.57v-7ZM253.95,708.61q-.17.15-.45.43c-.73.73-1.62,1.43-2.61,2.05,1.73.58,3.52.89,6.16,1.02-.35.58-.5.93-.67,1.53-3.5-.52-5.16-.95-6.89-1.79-2.05.93-4.26,1.47-7.24,1.79-.13-.5-.3-.89-.65-1.36,2.48-.13,4.47-.5,6.44-1.25-.8-.5-1.43-.97-2.1-1.64-1.08.82-1.79,1.21-3.24,1.77-.28-.47-.43-.67-.86-1.04,2.16-.67,3.82-1.75,5.01-3.24-.63-.13-.8-.35-.8-1.06v-.76c0-.39-.02-.69-.06-.97h1.43c-.06.3-.09.61-.09.97v.32c0,.43.26.5,1.9.5s2.12-.07,2.31-.32c.11-.15.17-.37.32-1.12.54.32.76.41,1.21.52l-.19-.17,1.06-.67c1.27,1.3,1.64,1.73,2.46,2.83l-1.04.86c-.82-1.21-1.32-1.84-2.25-2.79-.5,1.94-.56,1.97-4.19,1.97h-.56c-.32.41-.41.5-.65.78h3.67c.89,0,1.3-.02,1.64-.09l.93.93ZM243.47,703.64v2.1h-1.49c.04-.35.06-.84.06-1.34v-.63c0-.48-.02-.99-.06-1.34.67.04,1.23.09,2.27.09v-4.15c0-.56-.02-.97-.06-1.4.58.06,1.32.11,2.29.11h1.34c.17-.32.28-.58.41-.91h-3.22c-.93,0-1.69.04-2.29.13v-1.47c.52.09,1.25.13,2.29.13h9.1c1.06,0,1.77-.04,2.31-.13v1.47c-.6-.09-1.34-.13-2.29-.13h-4.32c-.11.28-.26.63-.41.91h2.85c.93,0,1.64-.04,2.23-.11-.04.48-.06.76-.06,1.38v4.17c.97,0,1.66-.02,2.35-.09-.04.41-.06.82-.06,1.32v.32c0,.56.02,1.02.09,1.36h-1.53v-1.79h-6.42c.82.39,1.15.58,1.88,1.1l-.73.89c-.69-.58-1.06-.82-1.9-1.25l.69-.73h-5.29ZM245.56,704.87c-.69,1.32-1.17,1.97-2.18,2.96l-.99-.86c1.08-.91,1.51-1.45,2.07-2.68l1.1.58ZM252.98,698.93v-.8h-7.3v.8h7.3ZM252.98,700.7v-.8h-7.3v.8h7.3ZM252.98,702.51v-.84h-7.3v.84h7.3ZM247.12,708.91c.67.58,1.34,1.02,2.29,1.53.86-.43,1.36-.78,2.31-1.53h-4.6Z" class="cls-6"></path>
          <path d="M263.19,699.27c-.71,1.14-1.34,1.94-2.33,2.98-.52-.56-.78-.78-1.34-1.12,1.45-1.36,1.99-2.05,2.81-3.63.56-1.12.86-2.01,1.04-2.98l1.79.45c-.17.37-.22.47-.41,1.01-.32.82-.43,1.1-.73,1.75h3.72v-1.53c0-.8-.02-1.28-.13-1.99h1.92c-.09.63-.13,1.17-.13,1.99v1.53h5.01c.93,0,1.56-.04,2.14-.13v1.79c-.61-.09-1.23-.13-2.14-.13h-5.01v3.61h6.52c1.02,0,1.69-.04,2.29-.13v1.81c-.67-.09-1.32-.13-2.29-.13h-4.41v6.89c0,.54.28.63,1.94.63,1.84,0,2.33-.13,2.59-.71.26-.58.35-1.43.35-3.09.56.3.95.45,1.69.65-.15,1.94-.35,2.94-.71,3.56-.54.95-1.36,1.17-4.26,1.17-2.61,0-3.26-.32-3.26-1.58v-7.52h-3c-.24,3.5-.84,5.19-2.46,6.76-1.23,1.19-2.38,1.88-4.65,2.81-.28-.56-.39-.76-1.04-1.58,2.12-.67,3.48-1.4,4.65-2.57.84-.84,1.38-2.01,1.62-3.59.09-.45.11-.86.17-1.84h-3.76c-.95,0-1.62.04-2.27.13v-1.81c.6.09,1.27.13,2.27.13h6.35v-3.61h-4.54Z" class="cls-6"></path>
          <path d="M282.81,706.44c0-.86,0-1.43.06-2.46-.67.89-1.04,1.27-1.99,2.05-.37-.84-.43-.95-.86-1.53,2.14-1.53,4.19-3.98,4.88-5.79l1.45.91c-.15.22-.3.41-.58.89-.41.65-.63.95-1.36,1.88v8.88c0,1.15.02,1.97.11,2.53h-1.84c.09-.65.13-1.43.13-2.53v-4.82ZM286.29,694.91q-.17.19-.78.91c-1.27,1.53-2.66,2.79-4.3,3.87-.26-.54-.56-.95-.97-1.36,2.18-1.3,3.82-2.87,4.65-4.41l1.4.99ZM289.1,698c-.89,0-1.45.02-2.05.11v-1.66c.56.09,1.19.13,2.1.13h2.74v-.78c0-.63-.04-1.14-.13-1.73h1.86c-.09.56-.11,1.04-.11,1.73v.78h3.11c.91,0,1.51-.04,2.1-.13v1.66c-.58-.09-1.19-.11-2.07-.11h-3.13v2.68h3.93c.93,0,1.6-.04,2.2-.13v1.69c-.6-.07-1.23-.11-2.18-.11h-.78v2.36h.78c.95,0,1.56-.04,2.18-.13v1.73c-.54-.09-1.27-.13-2.16-.13h-.8v5.79c0,.8-.24,1.3-.69,1.51-.41.17-1.19.28-2.12.28-.48,0-1.21-.02-1.97-.09-.09-.71-.19-1.12-.43-1.73.76.13,1.92.26,2.31.26h.09c.15-.02.32-.02.54-.02.45,0,.6-.13.6-.5v-5.51h-6.76c-.91,0-1.53.04-2.16.13v-1.73c.56.09,1.19.13,2.1.13h6.83v-2.36h-6.57c-.93,0-1.49.02-2.1.11v-1.69c.58.09,1.17.13,2.1.13h3.44v-2.68h-2.79ZM290.87,711.15c-1.1-1.66-1.84-2.53-3.18-3.74l1.27-.93c1.34,1.25,2.01,1.97,3.26,3.59l-1.36,1.08Z" class="cls-6"></path>
          <path d="M302.12,702.64c.52.09.84.11,1.69.11h1.15c.65,0,1.1-.02,1.64-.11-.06.63-.09,1.12-.09,2.31v4.34c.28.65.52.95.97,1.3.52.41,1.06.69,1.58.82.97.24,2.33.35,4.06.35,3.8,0,6.09-.11,8.92-.41-.32.78-.39.99-.54,1.82-2.44.09-4.6.13-7.35.13-3.85,0-5.1-.15-6.31-.71-.86-.41-1.53-.99-2.23-1.94-.86.86-1.3,1.23-2.46,2.14-.09.09-.24.22-.73.63l-.82-1.73c.84-.37,2.23-1.38,3.28-2.4v-5.06h-1.23c-.67,0-1.04.02-1.53.11v-1.69ZM303.7,694.54c1.58,1.47,2.33,2.29,3.54,3.85l-1.27,1.21c-1.27-1.79-1.94-2.57-3.46-3.98l1.19-1.08ZM310.85,701.69c-.84,0-1.3.02-1.77.06.04-.54.06-.86.06-1.62v-3.8c0-.6-.02-1.06-.09-1.6.54.07.99.09,1.88.09h7.13c.84,0,1.4-.02,1.9-.09-.06.58-.09.91-.09,1.66v3.74c0,.82,0,1.06.06,1.62-.48-.04-.91-.06-1.77-.06h-3.09v1.38h4.04c.69,0,1.36-.04,1.88-.11-.06.52-.09,1.08-.09,1.84v4.32c0,.71-.22,1.08-.71,1.3-.28.13-1.02.19-2.05.19-.22,0-.52,0-1.38-.04-.06-.5-.11-.71-.35-1.38.82.09,1.38.13,2.14.13.71,0,.89-.07.89-.39v-4.52h-4.36v2.29c.71-.11.91-.15,1.69-.3-.24-.37-.37-.54-.76-1.08l1.1-.5c.86,1.14,1.25,1.77,1.9,3.11l-1.19.6c-.22-.5-.28-.65-.45-1.02-1.36.32-3.15.65-4.54.86-1.27.19-1.58.26-2.03.39l-.32-1.58c.09.02.15.02.19.02.45,0,1.49-.11,3-.32v-2.49h-3.93v3.98c0,.89.04,1.73.09,2.05h-1.71c.09-.56.11-.95.11-2.01v-3.63c0-.74-.02-1.3-.09-1.82.52.06,1.06.09,1.81.09h3.72v-1.38h-2.83ZM310.61,696.12v1.53h3.07v-1.53h-3.07ZM310.61,698.84v1.6h3.07v-1.6h-3.07ZM315.08,697.65h3.33v-1.53h-3.33v1.53ZM315.08,700.44h3.33v-1.6h-3.33v1.6Z" class="cls-6"></path>
        </g>
        <circle r="5.31" cy="532.06" cx="331.8" class="cls-4"></circle>
        <circle r="5.31" cy="505.55" cx="339.14" class="cls-4"></circle>
        <g>
          <circle r="3.32" cy="608.06" cx="133.18" class="cls-4"></circle>
          <circle r="3.32" cy="645.03" cx="183.98" class="cls-4"></circle>
          <circle r="3.32" cy="494.32" cx="309.06" class="cls-4"></circle>
          <circle r="3.32" cy="659.89" cx="205.5" class="cls-4"></circle>
          <circle r="3.32" cy="543.03" cx="355.14" class="cls-4"></circle>
          <circle r="3.32" cy="479.85" cx="333.74" class="cls-4"></circle>
          <circle r="5.31" cy="583.5" cx="339.68" class="cls-4"></circle>
          <circle r="5.31" cy="664.98" cx="165.89" class="cls-4"></circle>
          <circle r="5.31" cy="628" cx="157.35" class="cls-4"></circle>
          <circle r="5.31" cy="648.93" cx="123.51" class="cls-4"></circle>
          <circle r="4.21" cy="564.08" cx="132.72" class="cls-4"></circle>
        </g>
      </g>
      <g>
        <path d="M197.63,620.94h-14c14.42,13.2,33.61,21.25,54.7,21.25-15.69,0-29.97-8.06-40.69-21.25Z" class="cls-4"></path>
        <path d="M180.74,585.19h-19.82c4.31,13.89,12.25,26.17,22.71,35.75h14c-7.78-9.58-13.69-21.86-16.9-35.75Z" class="cls-4"></path>
        <path d="M178.04,561.16c0-8.09.89-15.9,2.53-23.27h-19.87c-2.21,7.37-3.41,15.18-3.41,23.27s1.27,16.44,3.62,24.03h19.82c-1.75-7.59-2.7-15.66-2.7-24.03Z" class="cls-4"></path>
        <path d="M238.33,480.12c-21.48,0-41,8.37-55.5,22.02h14.21c10.79-13.64,25.31-22.02,41.29-22.02Z" class="cls-4"></path>
        <path d="M197.04,502.14h-14.21c-10.25,9.64-17.99,21.92-22.13,35.75h19.87c3.08-13.84,8.84-26.11,16.46-35.75Z" class="cls-4"></path>
        <path d="M279.62,502.14h14.21c-14.5-13.64-34.02-22.02-55.5-22.02,15.98,0,30.5,8.37,41.29,22.02Z" class="cls-4"></path>
        <path d="M279.02,620.94h14c10.46-9.58,18.41-21.86,22.71-35.75h-19.82c-3.2,13.89-9.11,26.17-16.9,35.75Z" class="cls-4"></path>
        <path d="M298.62,561.16c0,8.37-.94,16.44-2.7,24.03h19.82c2.35-7.59,3.62-15.66,3.62-24.03s-1.2-15.9-3.41-23.27h-19.87c1.64,7.37,2.54,15.18,2.54,23.27Z" class="cls-4"></path>
        <path d="M238.33,642.19c21.08,0,40.28-8.06,54.7-21.25h-14c-10.72,13.2-25.01,21.25-40.69,21.25Z" class="cls-4"></path>
        <path d="M293.83,502.14h-14.21c7.63,9.64,13.38,21.92,16.46,35.75h19.87c-4.14-13.84-11.88-26.11-22.13-35.75Z" class="cls-4"></path>
        <path d="M253.74,620.94h25.28c7.78-9.58,13.7-21.86,16.9-35.75h-35.78c-1.21,13.89-3.45,26.17-6.4,35.75Z" class="cls-4"></path>
        <path d="M215.5,561.16c0-8.09.34-15.9.96-23.27h-35.88c-1.64,7.37-2.53,15.18-2.53,23.27s.94,16.44,2.7,24.03h35.78c-.66-7.59-1.02-15.66-1.02-24.03Z" class="cls-4"></path>
        <path d="M260.2,537.89h35.88c-3.08-13.84-8.84-26.11-16.46-35.75h-25.65c2.89,9.64,5.07,21.92,6.23,35.75Z" class="cls-4"></path>
        <path d="M261.16,561.16c0,8.37-.36,16.44-1.02,24.03h35.78c1.75-7.59,2.7-15.66,2.7-24.03s-.89-15.9-2.54-23.27h-35.88c.62,7.37.96,15.18.96,23.27Z" class="cls-4"></path>
        <path d="M222.92,620.94h-25.28c10.73,13.2,25.01,21.25,40.69,21.25-5.94,0-11.35-8.06-15.41-21.25Z" class="cls-4"></path>
        <path d="M180.74,585.19c3.2,13.89,9.11,26.17,16.9,35.75h25.28c-2.95-9.58-5.19-21.86-6.4-35.75h-35.78Z" class="cls-4"></path>
        <path d="M222.69,502.14h-25.65c-7.63,9.64-13.38,21.92-16.46,35.75h35.88c1.17-13.84,3.35-26.11,6.23-35.75Z" class="cls-4"></path>
        <path d="M279.02,620.94h-25.28c-4.06,13.2-9.47,21.25-15.41,21.25,15.69,0,29.97-8.06,40.69-21.25Z" class="cls-4"></path>
        <path d="M253.97,502.14h25.65c-10.79-13.64-25.31-22.02-41.29-22.02,6.05,0,11.55,8.37,15.64,22.02Z" class="cls-4"></path>
        <path d="M197.04,502.14h25.65c4.09-13.64,9.58-22.02,15.64-22.02-15.98,0-30.5,8.37-41.29,22.02Z" class="cls-4"></path>
        <path d="M260.2,537.89c-1.17-13.84-3.35-26.11-6.23-35.75h-31.27c-2.89,9.64-5.07,21.92-6.23,35.75h43.74Z" class="cls-4"></path>
        <path d="M215.5,561.16c0,8.37.36,16.44,1.02,24.03h43.62c.66-7.59,1.02-15.66,1.02-24.03s-.34-15.9-.96-23.27h-43.74c-.62,7.37-.96,15.18-.96,23.27Z" class="cls-4"></path>
        <path d="M253.74,620.94h-30.82c4.06,13.2,9.47,21.25,15.41,21.25s11.35-8.06,15.41-21.25Z" class="cls-4"></path>
        <path d="M216.52,585.19c1.21,13.89,3.45,26.17,6.4,35.75h30.82c2.95-9.58,5.19-21.86,6.4-35.75h-43.62Z" class="cls-4"></path>
      </g>
      <line y2="451.24" x2="238.33" y1="480.12" x1="238.33" class="cls-4"></line>
      <g class="cls-11">
        <line y2="292.83" x2="1023.33" y1="239.21" x1="1076.95" class="cls-3"></line>
        <line y2="285.34" x2="1015.84" y1="231.71" x1="1069.46" class="cls-3"></line>
        <line y2="124.22" x2="902.65" y1="177.84" x1="849.03" class="cls-3"></line>
        <line y2="131.71" x2="910.15" y1="185.34" x1="856.52" class="cls-3"></line>
      </g>
      <g>
        <g>
          <path d="M898.01,694.22c1.04,1.56,1.94,2.53,3.61,3.78,1.88,1.45,3.89,2.57,5.86,3.31-.48.65-.73,1.1-.95,1.69-2.03-.95-4.13-2.23-5.86-3.63-1.49-1.17-2.51-2.23-3.52-3.65-1.02,1.4-1.9,2.33-3.33,3.52-1.88,1.6-3.63,2.7-5.7,3.65-.26-.58-.6-1.1-1.02-1.51,2.18-.91,3.89-1.95,5.64-3.37,1.47-1.19,2.51-2.33,3.44-3.78h1.84ZM890.54,706.44c-1.08,0-1.84.04-2.48.13v-1.84c.69.09,1.43.13,2.48.13h13.33c1.1,0,1.81-.04,2.48-.13v1.84c-.65-.09-1.4-.13-2.48-.13h-7.65c-.95,2.14-1.53,3.24-2.57,4.86,1.99-.11,5.19-.41,7.95-.76-1.08-1.19-1.49-1.62-2.48-2.57l1.38-.78c2.35,2.29,3.67,3.78,5.16,5.7l-1.45,1.04c-.76-1.08-1.02-1.47-1.49-2.05-3.63.48-7.43.89-10.67,1.12-2.2.17-2.85.24-3.39.35l-.28-1.9c.41.04.8.06,1.12.06q.3,0,2.18-.11c1.17-1.82,1.86-3.15,2.64-4.97h-3.78ZM891.88,700.76c.5.06.95.09,1.75.09h7.02c.84,0,1.36-.02,1.86-.09v1.73c-.52-.06-1.06-.09-1.84-.09h-7.07c-.65,0-1.25.02-1.73.09v-1.73Z" class="cls-6"></path>
          <path d="M913.26,710.14c-1.12,0-1.73.02-2.44.09q.06-.5.09-2.27v-5.16c0-1.12-.02-1.75-.09-2.33.67.07,1.36.09,2.44.09h11.02c1.06,0,1.71-.02,2.42-.09-.06.52-.09,1.17-.09,2.33v5.16l.02,1.19v.39c0,.15.02.32.06.69-.69-.07-1.32-.09-2.42-.09h-2.01c1.69,1.15,3.8,1.95,6.46,2.42-.5.52-.8.93-1.04,1.47-3.31-.86-4.56-1.43-6.74-2.94l1.17-.95h-6.91l1.3,1.02c-1.21.82-2.01,1.25-3.35,1.82-.8.32-1.3.48-3.33,1.04-.32-.67-.52-.95-1.06-1.51,2.57-.37,4.93-1.25,6.35-2.36h-1.86ZM925.82,697.82c0,.65.02,1.08.09,1.56-.69-.04-1.4-.06-2.4-.06h-9.46c-1.02,0-1.71.02-2.4.06.06-.54.09-.95.09-1.56v-1.47c0-.63-.02-.97-.09-1.58.67.09,1.25.11,2.44.11h9.38c1.17,0,1.75-.02,2.44-.11-.06.54-.09.91-.09,1.58v1.47ZM912.51,703.31h12.51v-1.43h-12.51v1.43ZM912.51,706.03h12.51v-1.45h-12.51v1.45ZM912.51,708.82h12.51v-1.51h-12.51v1.51ZM913.37,696.22v1.77h10.78v-1.77h-10.78Z" class="cls-6"></path>
          <path d="M931.58,696.51c0-.61-.02-1.1-.06-1.73.32.04.78.06,1.49.06h3.15c.73,0,1.19-.02,1.43-.11l.89,1.08q-.15.3-.69,1.62c-.5,1.21-1.08,2.44-1.88,3.93,1.21,1.45,1.66,2.27,1.94,3.48.13.54.19,1.04.19,1.69,0,1.17-.43,1.92-1.23,2.16-.48.13-1.04.19-1.75.19h-.82c-.04-.69-.15-1.1-.37-1.62.43.06.91.11,1.3.11.97,0,1.25-.24,1.25-1.08,0-.76-.17-1.56-.48-2.27-.37-.84-.76-1.4-1.77-2.51,1.15-2.12,1.47-2.85,2.35-5.23h-3.35v15.32c0,.82.02,1.43.11,2.14h-1.84c.09-.58.13-1.25.13-2.14v-15.1ZM940.61,704.2v6.98c1.97-.5,2.46-.63,3.87-1.1l.06,1.53c-2.33.71-3.65,1.06-6.87,1.81-.52.13-.76.19-1.02.3l-.39-1.73c.65-.04,1.4-.17,2.77-.45v-14.3c0-.86-.02-1.51-.09-2.25.54.06,1.06.09,2.1.09h5.77c1.06,0,1.56-.02,2.05-.11-.04.54-.06,1.04-.06,2.38v4.65c0,1.32.02,1.64.09,2.27-.65-.04-1.23-.06-1.99-.06h-2.81c.35,1.38.6,2.07,1.15,3.09,1.53-1.02,3-2.23,3.48-2.9l1.25,1.17s-.48.37-1.3,1.04c-.78.6-1.62,1.23-2.64,1.92,1.12,1.51,2.51,2.61,4.6,3.65-.48.5-.67.78-1.04,1.49-2.38-1.43-3.76-2.68-4.99-4.54-.95-1.45-1.47-2.7-2.03-4.93h-1.97ZM940.61,698.9h6.68v-2.38h-6.68v2.38ZM940.61,702.81h6.68v-2.51h-6.68v2.51Z" class="cls-6"></path>
          <path d="M961.29,701.91h-3.65c-.93,0-1.56.04-2.14.13v-1.73c.56.09,1.21.13,2.14.13h8.75c.93,0,1.58-.04,2.16-.13v1.73c-.58-.09-1.21-.13-2.16-.13h-3.5v3.33h4.13c.93,0,1.56-.04,2.1-.13v1.71c-.63-.09-1.19-.11-2.1-.11h-4.13v4.49c1.04.15,2.07.22,3.5.22,1.62,0,3.11-.07,5.01-.22-.28.65-.39,1.02-.52,1.77-1.62.06-2.14.06-4.19.06-5.29,0-8.25-1.23-9.83-4.11-.86,1.92-1.66,3.09-3.2,4.73-.43-.56-.6-.74-1.34-1.23,1.45-1.38,2.12-2.27,2.85-3.76.74-1.47,1.36-3.78,1.36-4.95v-.15l1.77.35q-.09.32-.28,1.17c-.04.3-.35,1.38-.58,2.2.93,1.81,1.94,2.74,3.85,3.48v-8.86ZM960.94,695.58c0-.52-.04-.82-.15-1.36h1.97c-.11.45-.13.84-.13,1.36v.97h6.18c.84,0,1.49-.02,2.23-.09-.06.48-.09.91-.09,1.49v1.47c0,.63.02,1.1.09,1.58h-1.66v-2.94h-14.78v2.94h-1.71c.09-.54.11-.89.11-1.6v-1.45c0-.54-.04-1.1-.09-1.49.71.07,1.38.09,2.23.09h5.81v-.97Z" class="cls-6"></path>
          <path d="M983.99,699.96q-.06.39-.09,1.58c-.09,3.65-.67,5.75-2.14,7.63-1.32,1.64-2.92,2.74-5.55,3.78-.39-.84-.58-1.1-1.19-1.75,1.75-.52,2.79-1.04,3.89-1.92,2.27-1.84,3.07-3.93,3.07-8.12,0-.6,0-.76-.09-1.19h2.1ZM992.59,697.24c-.22.3-.28.39-.54.91-1.49,2.96-3.46,4.93-6.27,6.31-.43-.65-.63-.87-1.32-1.45,1.51-.6,2.33-1.1,3.35-2.03.97-.91,1.71-1.88,2.31-3.07h-12.01c-1.3,0-1.86.02-2.66.11v-1.97c.76.11,1.38.15,2.7.15h11.5c1.34,0,1.47,0,1.9-.15l1.04,1.19Z" class="cls-6"></path>
          <path d="M1010.78,696.89c-.02-.15-.04-.32-.04-.5,0-1.36,1.1-2.46,2.46-2.46s2.46,1.1,2.46,2.46-1.1,2.46-2.46,2.46c-.24,0-.5-.04-.71-.11l-.13.45c-1.12,4.13-2.79,7-5.4,9.42-1.99,1.84-3.87,2.96-6.83,4.15-.41-.82-.6-1.12-1.3-1.79,1.94-.6,3.22-1.19,4.84-2.27,3.48-2.31,5.55-5.4,6.74-10.05h-10.67c-1.25,0-1.88.04-2.64.13v-2.05c.86.13,1.34.15,2.68.15h11ZM1011.69,696.4c0,.82.69,1.51,1.51,1.51s1.51-.69,1.51-1.51-.69-1.51-1.51-1.51-1.51.69-1.51,1.51Z" class="cls-6"></path>
          <path d="M1022.97,695.4c-.07.48-.09,1.15-.09,2.03v5.29c0,1.1.02,1.62.09,2.18h-2.14c.09-.63.11-1.19.11-2.18v-5.27c0-1.02-.02-1.49-.11-2.05h2.14ZM1032.6,695.43c-.09.56-.11.95-.11,2.12v2.44c0,3.41-.17,5.31-.56,6.59-.61,2.05-1.99,3.67-4.13,4.88-1.06.58-2.12.99-4.02,1.56-.28-.76-.43-1.02-1.08-1.79,2.25-.48,3.39-.91,4.62-1.75,2.1-1.4,2.87-2.81,3.13-5.75.06-.93.09-1.4.09-3.85v-2.31c0-1.32-.02-1.62-.09-2.14h2.14Z" class="cls-6"></path>
        </g>
        <g>
          <path d="M913.82,669.17c-9.6,0-17.42-7.8-17.42-17.4l-.13-157c0-9.6,7.8-17.42,17.4-17.42l96.37-.05c9.6,0,17.42,7.8,17.42,17.4l.13,157c0,9.6-7.8,17.42-17.4,17.42l-96.37.05Z" class="cls-9"></path>
          <g>
            <path d="M933.63,475.33h56.46c.11,0,.19.09.19.19v5.29c0,3.22-2.61,5.83-5.83,5.83h-45.18c-3.22,0-5.83-2.61-5.83-5.83v-5.29c0-.11.09-.19.19-.19Z" class="cls-10"></path>
            <g>
              <path d="M1010.05,471.25l-96.37.05c-12.93,0-23.45,10.53-23.45,23.47l.13,157c0,12.93,10.53,23.45,23.47,23.45l96.37-.05c12.93,0,23.45-10.53,23.45-23.47l-.13-157c0-12.93-10.53-23.45-23.47-23.45ZM1032.03,651.7c0,12.05-9.79,21.85-21.83,21.86l-96.37.05c-12.05,0-21.85-9.79-21.86-21.83l-.13-157c0-12.05,9.79-21.85,21.83-21.86l96.37-.05c12.05,0,21.85,9.79,21.86,21.83l.13,157Z" class="cls-6"></path>
              <path d="M1010.05,472.86l-96.37.05c-12.05,0-21.84,9.81-21.83,21.86l.13,157c0,12.05,9.81,21.84,21.86,21.83l96.37-.05c12.05,0,21.84-9.81,21.83-21.86l-.13-157c0-12.05-9.81-21.84-21.86-21.83ZM913.82,669.17c-9.6,0-17.42-7.8-17.42-17.4l-.13-157c0-9.6,7.8-17.42,17.4-17.42l96.37-.05c9.6,0,17.42,7.8,17.42,17.4l.13,157c0,9.6-7.8,17.42-17.4,17.42l-96.37.05Z" class="cls-10"></path>
            </g>
          </g>
        </g>
        <line y2="578.74" x2="1010.12" y1="578.79" x1="913.75" class="cls-2"></line>
        <line y2="598.62" x2="1010.12" y1="598.67" x1="913.75" class="cls-2"></line>
        <line y2="618.5" x2="1010.12" y1="618.55" x1="913.75" class="cls-2"></line>
        <line y2="638.38" x2="1010.12" y1="638.43" x1="913.75" class="cls-2"></line>
        <g data-sanitized-data-name="moji" data-name="moji" id="moji-2">
          <path d="M964.9,550.81v5.59h45.74v-13.21h-26.93v-38.11h-18.8v45.74h0Z" class="cls-6"></path>
          <path d="M963.88,505.07l-.17.51s-1.36,2.71-3.05,2.2c-.51-.17-1.19-.34-1.86-.68-2.88-1.36-6.95-3.05-13.04-3.05-4.74,0-12.7,1.36-19.48,5.08-8.47,4.91-13.04,12.7-13.04,22.36,0,2.71.51,7.96,4.23,13.04,2.71,3.9,11.01,13.04,27.78,13.04,11.01,0,19.31-3.05,24.22-8.81,4.4-5.08,5.25-11.52,4.4-15.75l-.17-.68h-17.45v.85c0,.17-.17,11.69-7.28,11.69s-7.62-5.93-7.62-10.33v-10.84s.17-7.28,7.28-7.28c6.44,0,7.28,7.62,7.28,9.82v.68c.17.68.68.68,1.52.68h16.77v-22.53h-10.33Z" class="cls-6"></path>
          <path d="M972.69,506.43v19.48h-15.08c-.17-4.57-2.2-11.18-8.98-11.18-7.28,0-8.98,6.44-8.98,8.81v10.84c0,2.03.17,4.91,1.19,7.28,1.52,3.22,4.07,4.74,7.96,4.74s6.44-2.37,7.79-6.78c.68-2.37,1.02-4.57,1.02-5.76h14.91c.51,3.9-.34,9.32-4.23,13.89-4.57,5.42-12.54,8.3-23.04,8.3-15.92,0-23.88-8.64-26.43-12.37-3.56-5.08-3.9-10.16-3.9-12.2,0-9.15,4.23-16.26,12.37-20.84,6.44-3.73,14.06-4.91,18.63-4.91,5.76,0,9.66,1.69,12.37,2.71.68.17,1.19.34,1.86.51,2.37.68,4.07-1.52,4.74-2.54h7.79Z" class="cls-9"></path>
        </g>
      </g>
    </g>
  </g>
</svg>